<?xml version="1.0" encoding="utf-8"?>
<!-- Generator: Adobe Illustrator 22.1.0, SVG Export Plug-In . SVG Version: 6.00 Build 0)  -->
<svg version="1.1" id="Слой_1__x28_копия_x29_"
	 xmlns="http://www.w3.org/2000/svg" xmlns:xlink="http://www.w3.org/1999/xlink" x="0px" y="0px" viewBox="0 0 90 90"
	 style="enable-background:new 0 0 534.6 90;" xml:space="preserve">
<style type="text/css">
	.st0{fill:#5C6670;}
	.st1{fill:#A03123;}
</style>
<g>
	<path class="st0" d="M36.8,8.5c0.4,1.9,0.8,2.7,2,2.7s1.6-0.8,2-2.7c0.4-1.9,0.9-3.6-0.4-4.5c-0.3-0.2-0.6-0.3-1-0.4
		c0.7-0.3,1.1-1,1.1-1.8c0-1.1-0.8-1.9-1.8-1.9c-1,0-1.8,0.9-1.8,1.9c0,0.8,0.5,1.5,1.1,1.8c-0.4,0.1-0.7,0.2-1,0.4
		C35.9,5,36.4,6.7,36.8,8.5z"/>
	<path class="st0" d="M33.2,12.7c1.6-1.2,2.6-1,2.9-1.4c0.4-0.5-1.2-1.8-1.1-4.8c0-2-0.7-2.1-1-2.1c-2.2,0.2-4.4,1.7-4,5
		c0.1,0.9,0.9,2.1,1.7,3.2C31.7,12.6,32.6,13.1,33.2,12.7z"/>
	<path class="st0" d="M16.5,14.7c-1.7,0.9-4.1,2.6-5.3,4.3c-0.7,1.1,0.3,2,1.7,2.3c0.6,0.1,1.2,0.1,1.6,0.1c0.2-0.3,0.6-0.9,0.8-1.1
		c0.3-0.4,0.8-0.7,1.2-1.1c0-1.1,0.1-2.1,0.2-2.8C17.1,15.1,17.2,14.4,16.5,14.7z"/>
	<path class="st0" d="M14.4,25.6c-0.6,0.4-1.3,0.8-1.9,1.2c0.9,2.3,4.2,6.2,4.6,6c0.2-0.1,0.6-4.8,1.2-5.9c-0.6-1.1-1.5-3.1-1.8-4
		c-0.1,0.2-0.2,0.5-0.3,0.8C16,24.4,15.1,25.2,14.4,25.6z"/>
	<path class="st0" d="M21,24.7c0.1-0.6,0.4-1.3,0.9-1.8c-1.2-1.4-1.5-3-1.5-4.2c0-1.4,0.7-2.3,0.5-3c-0.3-0.6-1.5-1.9-2.9-1.7
		c0,0,0,0,0,0c0.6,0.4-0.2,1.7-0.3,2.5c-0.2,0.8-0.3,1.8-0.2,3.7c0.2,0.9,0.4,1.7,0.9,3c0.3,0.8,0.8,1.6,1.4,2.4c0,0,0,0,0,0
		C20.1,25.3,20.5,24.9,21,24.7z"/>
	<path class="st0" d="M36.4,25.7c1.3-2.4,1.6-5.4,1.8-8.1c0-1.2,0-2.2,0-3.2c0.4,0,0.6,0.1,0.6,0.1s0.2-0.1,0.6-0.1c0,0.9,0,2,0,3.2
		c0.1,2.7,0.5,5.7,1.8,8.1c0,0,0,0.1,0.1,0.1c0.1-0.1,0.2-0.2,0.3-0.2c0.6-0.5,1.5-1.3,1.9-1.8c-0.1-0.1-0.1-0.1-0.2-0.2
		c-1.3-1.7-2-4.1-2.1-6.2c0-1,0-1.9,0.2-2.6c0.6,0.2,1.1,0.4,1,0.5c-0.2,0.3,0,0.9,0,1.3c1.1-0.3,2-0.6,2-1v-1.1v-0.3
		c0-0.8-2.4-1.4-5.4-1.4c0,0-0.1,0-0.2,0c-2.9,0-5.2,0.6-5.2,1.4v1.3c0,0.4,0.6,0.8,1.6,1c0,0,0.1,0,0.1,0c0-0.5-0.1-1-0.3-1.3
		c-0.1-0.2,0.3-0.3,0.9-0.5c0,0,0,0,0,0c0.2,0.7,0.3,1.6,0.2,2.6c-0.1,2.1-0.8,4.5-2.1,6.2c-0.1,0.1-0.1,0.1-0.2,0.2
		c0.4,0.5,1.3,1.3,1.9,1.8c0.1,0.1,0.2,0.2,0.3,0.2C36.4,25.8,36.4,25.7,36.4,25.7z"/>
	<path class="st0" d="M15.6,22.4c-1.1,0.1-3.6,0.3-5-1.2c0.1,0.2,0.1,0.3,0.2,0.5c0.6,1.2,1.2,2.7,2.6,3.3
		C14.5,24.6,15.3,23.5,15.6,22.4z"/>
	<path class="st0" d="M30.3,32.9c0.2-1.5,0.5-1.5-1.5-2.9c0,0-0.1,0-0.2-0.1c-0.9-0.6-2.7-1.5-4.1-1.5c-1.5-0.1-2.2,0.7-3.2,0.3
		c-0.8-0.3-0.2-1.3,0.4-1.6c0.4-0.2,0.7-0.7,0.1-0.8c0,0-0.1,0-0.1,0c-0.6-0.1-1,0.1-1.4,0.4c-0.1,0.1-0.3,0.3-0.4,0.4
		c-0.7,0.9-0.9,2-0.7,3.1c0.4,1.8,1.1,2.5,1.2,2.5c0.3-0.1,0.6-2,1.7-2.3c1.9-0.5,2.6-0.2,4.1,0.1c1.4,0.3,3,0.7,3.2,1.3
		c0.2,0.7-1.1,2.2-2.8,2.9c-0.4,0.2-1.2,0.2-1.7,0.1c-0.4,0-0.5-0.2-0.6-0.1c-0.1,0.2,0.8,1.1,2.4,1.1c0.3,0,1.3,0,2.1-0.6
		c0,0,0.1-0.1,0.1-0.1C29.2,34.8,30.1,34.1,30.3,32.9z"/>
	<path class="st0" d="M21.6,35c0.5-0.1,0.9-0.3,1.3-0.6c0.1-0.1,0.2-0.1,0.3-0.2l0.1-0.1l0.1-0.1c0.2-0.2,0.2-0.2,0.4-0.4
		c0.5-0.4,1.2-0.7,1.9-0.9c0.7-0.2,1.5-0.4,2.3-0.4c0.1,0,0.2-0.1,0.2-0.1c0-0.1,0-0.2-0.1-0.3c-0.8-0.3-1.7-0.4-2.6-0.3
		c-0.9,0.1-1.8,0.4-2.5,0.9c-0.2,0.1-0.4,0.3-0.5,0.5l-0.1,0.1l-0.1,0.1c0,0-0.1,0.1-0.2,0.2c-0.3,0.2-0.5,0.4-0.9,0.5
		c-0.6,0.2-1.4,0.3-2.1,0.2l0,0c-0.1,0-0.1,0-0.2,0.1c-0.1,0.1-0.1,0.2,0,0.3C19.7,35,20.6,35.2,21.6,35z"/>
	<path class="st0" d="M28.1,21.3c0.5,0,1.3-1,1.7-2.2c0.4-1.1,0.3-2.1-0.2-2.6c-0.2-0.2-0.5-0.4-0.8-0.5c0.4-0.2,0.8-0.6,0.8-1.1
		c0-0.7-0.5-1.3-1.1-1.3c-0.7,0-1.2,0.5-1.2,1.2c0,0.5,0.3,1,0.7,1.2c-0.3,0.1-0.6,0.2-0.9,0.4c-0.5,0.4-0.7,1.4-0.4,2.6
		C26.9,20.2,27.6,21.3,28.1,21.3z"/>
	<path class="st0" d="M26.2,21.2c0.2-0.4-1-1.1-0.8-3.1c0.2-1.8-1-1.7-1-1.7s0,0,0,0c-1.3,0.2-2.4,1.2-2.2,3.1
		c0,0.4,0.2,0.9,0.5,1.3c0.1,0.1,0.1,0.2,0.2,0.3C23.5,22.1,26,21.6,26.2,21.2z"/>
	<path class="st0" d="M31,18.3c0.1,2-1.2,2.6-1.1,3c0.2,0.4,2.6,1.1,3.3,0.3c0.3-0.4,0.7-1,0.8-1.4c0,0,0-0.1,0-0.1
		c0.4-1.9-0.7-3-1.9-3.3c0,0,0,0,0,0S30.9,16.6,31,18.3z"/>
	<path class="st0" d="M26.2,77.5L26.2,77.5c0.7-0.5,1.3-0.6,1.9-0.6c0.6,0,1.2,0.1,2,0.2c0.8,0.1,1.6,0.2,2.5,0.1
		c0.4,0,0.9-0.1,1.3-0.2c0.2-0.1,0.4-0.1,0.7-0.3c0.2-0.1,0.5-0.3,0.6-0.6c0,0,0,0,0-0.1c0-0.1-0.1-0.3-0.2-0.3l-0.3-0.1
		c-0.2,0-0.6-0.1-0.9-0.2l-1.1-0.3c-0.7-0.2-1.5-0.3-2.3-0.5c-0.9-0.1-1.9-0.1-2.8,0.2c-0.9,0.4-1.8,1.2-1.9,2.3
		c0,0.1,0,0.1,0.1,0.2C25.9,77.5,26.1,77.5,26.2,77.5z"/>
	<path class="st0" d="M31.5,80.7c0.6-0.2,1.2-0.4,1.8-0.6c0.6-0.2,1.2-0.5,1.8-0.9c0.3-0.2,0.6-0.5,0.8-0.8c0.1-0.1,0.2-0.3,0.3-0.5
		c0-0.1,0.1-0.2,0.1-0.3l0.1-0.2l0,0c0-0.1,0-0.2-0.1-0.3c-0.1-0.1-0.3-0.1-0.4,0c-0.4,0.5-0.8,0.6-1.4,0.8
		c-0.5,0.2-1.1,0.2-1.7,0.3c-0.6,0.1-1.2,0.1-1.8,0.2c-0.6,0.1-1.1,0.1-1.7,0.1l-1.8,0.1c-0.6,0-1.3,0.1-2,0.2
		c-0.4,0.1-0.8,0.2-1.2,0.5c-0.4,0.3-0.8,0.7-1,1.2c-0.2,0.5-0.2,1-0.2,1.4c0.1,0.4,0.3,0.8,0.6,1.1c0,0,0,0,0,0
		c0.2,0.1,0.4,0.1,0.6,0l0,0c0.3-0.3,0.4-0.6,0.6-0.8c0.2-0.2,0.3-0.3,0.5-0.3c0.1,0,0.2,0,0.3-0.1c0.1,0,0.3-0.1,0.5-0.2
		c0.9-0.2,2.2-0.3,3.5-0.5C30.2,81,30.8,80.9,31.5,80.7z"/>
	<path class="st0" d="M42.8,6.5c0,3-1.5,4.3-1.1,4.8c0.3,0.4,1.2,0.2,2.9,1.4c0.6,0.4,1.4-0.1,1.5-0.1c0.8-1.1,1.6-2.3,1.7-3.2
		c0.5-3.3-1.8-4.8-4-5C43.5,4.4,42.8,4.5,42.8,6.5z"/>
	<path class="st0" d="M77.6,44.7c-0.1-0.5-0.6-0.7-1.1-0.6l0,0c-1,0.3-2.1,0.6-3.1,0.9c-0.5,0.1-1.1,0.3-1.6,0.4
		c-0.5,0.1-1,0.2-1.6,0.3c-1.1,0.1-2.2,0.3-3.3,0.4c-0.7,0.1-1.5,0.1-2.2,0.1c0.1,0,0.2-0.1,0.4-0.1c0.3-0.1,0.6-0.2,0.9-0.3
		c0.6-0.2,1.2-0.4,1.8-0.6c1.2-0.4,2.3-0.9,3.4-1.4c1.1-0.5,2.3-1,3.3-1.7c1-0.7,2-1.4,2.9-2.3c0.3-0.3,0.4-0.7,0.1-1.1
		c-0.2-0.4-0.8-0.6-1.2-0.3l0,0c-1,0.6-2,1.1-3,1.6c-1,0.5-2,1-3.1,1.4c-1.1,0.4-2.2,0.7-3.3,1.1c-0.6,0.2-1.1,0.3-1.7,0.4L64.7,43
		c0.3-0.1,0.6-0.3,0.9-0.4c0.6-0.3,1.2-0.6,1.7-0.9c1.1-0.7,2.2-1.3,3.3-2.1c1.1-0.7,2.2-1.5,3.1-2.4c0.9-0.9,1.8-1.9,2.6-3
		c0.2-0.3,0.2-0.8-0.1-1.1c-0.3-0.4-0.9-0.4-1.2-0.1l0,0c-0.9,0.8-1.8,1.6-2.8,2.3c-1,0.7-1.9,1.5-2.9,2c-1.1,0.6-2.1,1.2-3.2,1.7
		c-0.5,0.3-1,0.5-1.6,0.7c0.1-0.1,0.2-0.1,0.2-0.2c0.6-0.4,1.1-0.9,1.7-1.3c1.1-0.9,2-1.8,3-2.8c1-1,1.9-2,2.7-3.2
		c0.8-1.2,1.5-2.3,2-3.6c0.2-0.4,0-0.8-0.3-1.1c-0.4-0.3-0.9-0.2-1.2,0.2l0,0c-0.7,1-1.5,2-2.3,3c-0.8,1-1.6,1.9-2.6,2.7
		c-0.9,0.8-1.9,1.6-2.9,2.3c0.1-0.1,0.2-0.3,0.3-0.4c0.9-1.2,1.6-2.4,2.3-3.6c0.7-1.3,1.4-2.6,1.9-3.9c0.5-1.4,0.9-2.7,1.1-4.2
		c0.1-0.4-0.2-0.8-0.6-1c-0.5-0.2-1,0.1-1.1,0.5l0,0c-0.4,1.2-1,2.5-1.5,3.7c-0.6,1.2-1.2,2.4-1.9,3.5c-0.5,0.7-1,1.5-1.6,2.1
		c-1.7,1.8-4.4,3.7-5.9,4.4c-1.8,0.9-4,2-4,3.8c0,1.1,1.1,2.1,1.8,2.2c0.7,0.1,1.1-0.2,1.1-0.2s-0.2-0.6,0.2-0.9
		c0.4-0.2,0.9,0.4,1.1,1c0.2,0.6-0.4,1.4-1.2,1.5c-0.6,0.2-1.9-0.2-2.6-0.6c0,0,0,0,0,0c-0.1,0-0.2-0.1-0.2-0.1c0,0,0,0,0,0
		c-1.1-0.6-2.5-1.5-3.9-2.9c0,0-1.9-2.1-2.9-4.6c0.8,0.1,1.6,0,1.6,0c-0.5-0.5-1.3-1.5-1.6-2.2c-0.3-0.7-0.6-2.7-0.2-3.3
		c0.5-0.8,1.3-1.3,2-1.7c0.9-0.5,1.8-1.1,2.7-1.8c0,0,0,0,0,0c1-0.8-0.5-0.7-1.1-0.6c-0.5,0-0.8,0-1.2-0.6c-0.4-0.5,0-1,0.4-1.3
		c0.3-0.2,1-0.4,1.6-0.4c0,0.1-0.1,0.2-0.1,0.3c-0.1,0.7,0.2,1.3,0.8,1.4c0.5,0.1,1-0.4,1.1-1.1c0,0,0,0,0-0.1
		c0.2,0.1,0.4,0.3,0.4,0.5c0.2,0.6,0.2,0.6,0.7,0.4c0,0,0.1,0,0.1,0c0.5-0.2,0.7-0.2,0.9-0.6c0.2-0.4,0.3-0.6,0.3-1
		c-0.1-0.4-0.4-0.8-0.8-1.1c-0.2-0.1-0.5-0.2-0.9-0.4l0-0.3c0,0,0,0,0,0c0,0,0,0-0.1,0c-1.1,0.2-2.3-0.3-2.9-0.2
		c-0.6,0.1-0.7,0.4-1.1,0.4c-0.4,0-0.5-0.3-1.1-0.3c-0.6,0-1.8,0.5-2.9,0.5c0,0,0,0-0.1,0c0,0,0,0,0,0l0,0.4c-0.5,0.3-1,0.7-1.5,1.2
		l0,0c0,0.1-0.1,0.1-0.1,0.1c-0.1,0.1-0.3,0.3-0.4,0.4c-1.8,2-3.8,3.4-3.8,3.4s0.6,0.3,1.4,0.6c0,0.1,0,0.1-0.1,0.2
		c-1.4,2.9-2.2,5.6-2.2,5.6s-0.9-2.7-2.2-5.6c0-0.1,0-0.1-0.1-0.2c0.8-0.3,1.4-0.6,1.4-0.6s-2-1.4-3.8-3.4c-0.1-0.2-0.3-0.3-0.4-0.4
		c0,0-0.1-0.1-0.1-0.1l0,0c-0.5-0.5-1-1-1.5-1.2l0-0.4c0,0,0,0,0,0c0,0,0,0-0.1,0c-1.1,0.1-2.3-0.5-2.9-0.5c-0.6,0-0.7,0.3-1.1,0.3
		c-0.4,0-0.5-0.3-1.1-0.4c-0.6-0.1-1.8,0.4-2.9,0.2c0,0,0,0-0.1,0c0,0,0,0,0,0l0,0.3c-0.4,0.1-0.7,0.2-0.9,0.4
		c-0.4,0.3-0.7,0.7-0.8,1.1c-0.1,0.4,0.1,0.6,0.3,1c0.2,0.3,0.4,0.4,0.9,0.6c0,0,0.1,0,0.1,0c0.5,0.2,0.5,0.1,0.7-0.4
		c0.1-0.2,0.2-0.4,0.4-0.5c0,0,0,0,0,0.1c0.1,0.7,0.6,1.2,1.1,1.1c0.5-0.1,0.9-0.7,0.8-1.4c0-0.1,0-0.2-0.1-0.3
		c0.6,0,1.2,0.1,1.6,0.4c0.4,0.3,0.8,0.8,0.4,1.3c-0.4,0.6-0.7,0.6-1.2,0.6c-0.5,0-2-0.2-1.1,0.6c0,0,0,0,0,0
		c0.9,0.6,1.8,1.3,2.7,1.8c0.8,0.4,1.5,1,2,1.7c0.4,0.7,0.2,2.7-0.2,3.3c-0.3,0.7-1.2,1.7-1.6,2.2c0,0,0.8,0.2,1.6,0
		c-1,2.5-2.9,4.6-2.9,4.6c-1.5,1.4-2.8,2.3-3.9,2.9c0,0,0,0,0,0c-0.1,0-0.2,0.1-0.2,0.1c0,0,0,0,0,0c-0.7,0.3-2,0.7-2.6,0.6
		c-0.7-0.2-1.3-0.9-1.2-1.5c0.2-0.6,0.7-1.2,1.1-1c0.4,0.2,0.2,0.9,0.2,0.9s0.4,0.3,1.1,0.2c0.7-0.1,1.8-1.2,1.8-2.2
		c0-1.8-2.2-2.9-4-3.8c-1.5-0.7-4.3-2.6-5.9-4.4c-0.5-0.7-1.1-1.4-1.6-2.1c-0.7-1.1-1.3-2.3-1.9-3.5C10,26,9.5,24.7,9,23.5l0,0
		c-0.1-0.4-0.5-0.6-1-0.6c-0.5,0.1-0.8,0.5-0.8,1c0.2,1.5,0.6,2.8,1.1,4.2c0.5,1.4,1.2,2.7,1.9,3.9c0.7,1.2,1.5,2.4,2.3,3.6
		c0.1,0.1,0.2,0.3,0.3,0.4c-1-0.7-1.9-1.5-2.9-2.3c-0.9-0.8-1.7-1.8-2.6-2.7c-0.8-1-1.6-2-2.3-3l0,0c-0.2-0.3-0.7-0.5-1.1-0.3
		c-0.5,0.2-0.7,0.7-0.5,1.2c0.5,1.3,1.2,2.5,2,3.6c0.8,1.1,1.7,2.2,2.7,3.2c0.9,1,1.9,1.9,3,2.8c0.5,0.4,1.1,0.9,1.7,1.3
		c0.1,0.1,0.2,0.1,0.2,0.2c-0.5-0.2-1-0.4-1.6-0.7c-1.1-0.5-2.2-1.1-3.2-1.7c-1-0.6-2-1.3-2.9-2c-1-0.7-1.9-1.5-2.8-2.3l0,0
		c-0.3-0.3-0.7-0.3-1.1-0.1c-0.4,0.3-0.5,0.8-0.2,1.2c0.8,1.1,1.6,2.1,2.6,3c0.9,0.9,2,1.7,3.1,2.4c1.1,0.7,2.1,1.4,3.3,2.1
		c0.6,0.3,1.1,0.6,1.8,0.9c0.3,0.1,0.6,0.3,0.9,0.4l-0.4-0.1c-0.6-0.1-1.1-0.3-1.7-0.4c-1.1-0.3-2.2-0.7-3.3-1.1
		C6.4,41,5.4,40.5,4.4,40c-1-0.5-2-1.1-3-1.6l0,0c-0.3-0.2-0.8-0.1-1.1,0.1c-0.3,0.3-0.3,0.9,0,1.3c0.9,0.9,1.9,1.6,2.9,2.3
		c1,0.7,2.2,1.2,3.3,1.7c1.1,0.5,2.2,1,3.4,1.4c0.6,0.2,1.2,0.4,1.8,0.6c0.3,0.1,0.6,0.2,0.9,0.3c0.1,0,0.2,0.1,0.4,0.1
		c-0.7,0-1.5-0.1-2.2-0.1c-1.1-0.1-2.2-0.2-3.3-0.4c-0.6-0.1-1.1-0.2-1.6-0.3c-0.5-0.1-1-0.2-1.6-0.4c-1-0.2-2.1-0.6-3.1-0.9l0,0
		c-0.4-0.1-0.8,0-1,0.4c-0.3,0.4-0.1,1,0.3,1.2c1,0.6,2.1,1.1,3.2,1.5c1.1,0.4,2.3,0.7,3.4,0.9c1.1,0.2,2.3,0.5,3.4,0.7
		c1,0.2,2,0.3,3.1,0.4c-0.7,0.1-1.3,0.2-2,0.2c-1.1,0.1-2.1,0.2-3.2,0.3c-0.3,0-0.5,0-0.8,0l-0.8,0l-1.5,0c-1,0-2.1-0.1-3.1-0.1l0,0
		c-0.4,0-0.8,0.2-0.9,0.6c-0.2,0.5,0.1,1,0.5,1.1c1.1,0.4,2.2,0.6,3.3,0.8c0.6,0.1,1.1,0.1,1.7,0.2c0.3,0,0.6,0,0.9,0l0.8,0
		c1.1,0,2.2,0,3.3,0c0.8,0,1.5,0,2.3-0.1l-0.1,0.2c-1.3,0.4-2.5,0.8-3.8,1.1c-1,0.3-1.9,0.5-2.9,0.7c-1,0.2-1.9,0.4-2.9,0.6l0,0
		c-0.4,0.1-0.7,0.4-0.7,0.8c0,0.5,0.3,0.9,0.8,1c1.1,0.1,2.1,0.1,3.2,0c1-0.1,2.1-0.3,3.1-0.5c1-0.2,2-0.4,3-0.6l0.1,0.3
		c-0.4,0.2-0.8,0.5-1.2,0.7c-0.8,0.5-1.7,0.8-2.5,1.3c-0.8,0.4-1.7,0.8-2.5,1.3l0,0C7.2,59.3,7,59.7,7,60c0.1,0.5,0.6,0.8,1,0.7
		c1-0.2,1.9-0.5,2.9-0.8c0.9-0.3,1.8-0.7,2.7-1.1c0.2-0.1,0.5-0.2,0.7-0.3l0.2,0.9c0,0,0,0,0,0l-1,0.9c-0.7,0.6-1.3,1.3-1.9,2
		c-0.2,0.3-0.3,0.7-0.1,1c0.2,0.4,0.8,0.6,1.2,0.4c0.8-0.4,1.6-0.9,2.3-1.4l0.1-0.1l2.5,11.3c1.1,0,2,0,2.9-0.1c-0.8-1-0.6-2-1.8-2
		v0c0,0,0.1,0,0.1,0l-1-5.9L15,48.7c0,0,0,0,0,0c1.4,0.6,2.7,0.8,3.8,0.8c1,0,2-0.2,2.9-0.5c1.3-0.4,2.6-1,4.1-1.6c0,0,0,0,0,0
		c-0.2,0.8-0.3,1.6-0.4,2.4c-0.1,0.7-0.2,1.4-0.2,2.1c0,8.9,5.2,16.3,12.2,17V71c-1.3-1.1-4-2.9-7.3-3c-0.1,0-0.3,0-0.4,0
		c-0.4,0-0.7,0-1.1,0c0,0,0,0,0,0c-0.7,0.3-0.9,0.9-0.8,1.5c0.1,0.7,1.5,1.4,1.4,2.2c0,0.1,0,0.1-0.1,0.1c0,0,0,0,0,0
		c-0.3-0.9-1.7-1-2.4-2c0-0.1-0.1-0.2-0.1-0.3c-0.2-0.5-0.2-1-0.2-1.5c0-0.5,0.1-1.1,0.3-1.8c0,0,0-0.1,0-0.1c0-0.1-0.1-0.1-0.2,0
		c-0.6,0.4-1.1,0.9-1.3,1.7c-0.3,0.7-0.2,1.5,0,2.2c-0.4,0-0.8,0.1-1-0.2c-0.1-0.5-0.2-0.9-0.2-1.4c0-0.6,0.2-1.2,0.4-1.9
		c0,0,0-0.1,0-0.1c0-0.1-0.1-0.1-0.2,0c-0.6,0.4-1.1,1-1.4,1.7c-0.3,0.7-0.3,1.6,0,2.4c0,0,0,0,0,0.1c0,0.1,0,0.1,0,0.2c0,0,0,0,0,0
		c-0.1,0.2-0.4,0.4-0.6,0.7c-0.2-0.4-0.4-0.7-0.5-1.1c-0.1-0.5-0.2-1.1-0.1-1.7c0-0.6,0.2-1.2,0.4-1.9c0,0,0-0.1,0-0.1
		c0-0.1-0.1-0.1-0.2,0c-0.6,0.4-1.1,1-1.4,1.7c-0.3,0.7-0.4,1.6-0.1,2.4c0.1,0.5,0.4,1,0.7,1.4c0,0,0,0,0,0.1
		c0.5,1.1,2.1,2.1,3.4,2.2c0.2,0,0.4,0,0.7,0c0.2,0,0.5,0,0.7-0.1c0,0,0,0,0,0c1-0.1,2-0.4,2.7-0.9c3.4,0.2,6.1,0.7,8.1,1.9
		c0,0,0,0,0,0c0.1,0,0.1,0.1,0.2,0.1c0.9,0.7,1.3,2.2,0.5,3.3c-0.3,0.3-0.5,0.5-0.8,0.8c-0.9,0.8-1.9,1.5-3,2c-1,0.5-2.1,0.8-3.2,1
		c-1.1,0.2-2.2,0.4-3.7,0.7h0c-0.1,0-0.1,0-0.2,0.1c-0.1,0.1-0.2,0.4,0,0.5c1.1,1.1,2.6,1.6,4.1,1.5c1.5-0.1,3-0.7,4.2-1.4
		c1.3-0.8,2.3-1.8,3.2-3c0,0,0-0.1,0.1-0.1c0,0,0,0,0,0.1c-0.2,0.6-0.4,1.3-0.6,1.9c-0.2,0.3-0.5,0.7-0.7,1c-0.5,0.6-1,1.1-1.5,1.6
		c-0.5,0.4-1.1,0.8-1.8,1c-0.7,0.3-1.4,0.5-2.3,0.6l0,0c-0.1,0-0.1,0.1-0.2,0.1c-0.1,0.1-0.1,0.4,0.1,0.5c0.8,0.6,1.8,0.8,2.8,0.8
		c1-0.1,2.1-0.5,2.9-1.2c0.1-0.1,0.3-0.2,0.4-0.4c0.2,0.5,0.5,0.9,0.7,1.4c0.2,0.5,0.5,1.1,0.8,1.6c0,0.1,0.1,0.1,0.1,0.1
		c0.2,0.1,0.4,0,0.5-0.1c0.3-0.5,0.5-1.1,0.8-1.6c0.2-0.5,0.5-0.9,0.7-1.4c0.1,0.1,0.3,0.3,0.4,0.4c0.8,0.7,1.9,1.1,2.9,1.2
		c1,0.1,2.1-0.2,2.9-0.8c0.1,0,0.1-0.1,0.1-0.2c0-0.2-0.1-0.4-0.3-0.4l0,0c-0.9-0.2-1.7-0.4-2.3-0.6c-0.7-0.3-1.2-0.6-1.8-1
		c-0.5-0.4-1-1-1.5-1.6c-0.2-0.3-0.5-0.6-0.7-1c-0.2-0.6-0.4-1.3-0.6-1.9c0,0,0,0,0-0.1c0,0,0,0.1,0.1,0.1c0.8,1.2,1.9,2.2,3.2,3
		c1.3,0.8,2.7,1.3,4.2,1.4c1.5,0.1,3.1-0.4,4.1-1.5c0,0,0.1-0.1,0.1-0.2c0-0.2-0.1-0.4-0.3-0.4l0,0c-1.4-0.3-2.6-0.5-3.7-0.7
		c-1.1-0.2-2.2-0.5-3.2-1c-1-0.5-2-1.2-2.9-2c-0.3-0.2-0.5-0.5-0.8-0.8c-0.8-1.1-0.4-2.6,0.5-3.3c0.1,0,0.1-0.1,0.2-0.1c0,0,0,0,0,0
		c2-1.3,4.6-1.8,8.1-1.9c0.7,0.4,1.7,0.8,2.7,0.9c0.5,0.1,1,0.1,1.4,0c1.3-0.2,2.9-1.2,3.4-2.2c0,0,0,0,0-0.1
		c0.3-0.4,0.5-0.9,0.7-1.4c0.2-0.8,0.1-1.7-0.2-2.4c-0.3-0.7-0.8-1.3-1.4-1.7c0,0-0.1,0-0.1,0c-0.1,0-0.1,0.1-0.1,0.2
		c0.1,0.7,0.3,1.3,0.4,1.9c0.1,0.6,0,1.1-0.1,1.7c-0.1,0.4-0.3,0.8-0.5,1.1c-0.1-0.3-0.5-0.5-0.6-0.7c0,0,0,0,0,0c0-0.1,0-0.1,0-0.2
		c0,0,0,0,0-0.1c0.3-0.8,0.3-1.6,0-2.4c-0.3-0.7-0.8-1.3-1.4-1.7c0,0-0.1,0-0.1,0c-0.1,0-0.1,0.1-0.1,0.2c0.2,0.7,0.3,1.3,0.4,1.9
		c0,0.5,0,0.9-0.2,1.4c-0.1,0.2-0.4,0.2-0.7,0.2c-0.1,0-0.2,0-0.3,0c0.2-0.7,0.2-1.5,0-2.2c-0.3-0.7-0.7-1.3-1.3-1.7
		c0,0-0.1,0-0.1,0c-0.1,0-0.1,0.1-0.1,0.2c0.1,0.7,0.3,1.2,0.3,1.8c0,0.5-0.1,1-0.2,1.5c0,0.1-0.1,0.2-0.2,0.3c-0.7,1-1.8,1.1-2.4,2
		l0,0c0,0,0-0.1,0-0.1c-0.1-0.4,0.4-0.9,0.8-1.3c0.3-0.3,0.6-0.6,0.6-0.9c0.1-0.6-0.2-1.2-0.8-1.5c0,0,0,0,0,0c0,0,0,0-0.1,0
		c-0.2,0-0.4,0-0.6,0c0,0,0,0,0,0c-0.2,0-0.5,0-0.8,0c-3.2,0.1-5.8,1.7-7.1,2.8C40.2,70.9,40,70.9,40,71v-2.1
		c7-0.7,12.2-8.1,12.2-17c0-0.8-0.1-1.7-0.2-2.5c-0.1-0.7-0.2-1.4-0.3-2c0,0,0,0,0,0c0,0,0,0,0.1,0c0,0,0.1,0,0.1,0c0,0,0.2,0,0.2,0
		c0,0,0,0,0,0c1.3,0.4,2,0.9,3,1.3c1.3,0.5,2.4,0.8,3.8,0.9c0.8,0,1.6-0.1,2.5-0.4c0.1,0,0.1,0,0.2,0c0.1,0,0.2-0.1,0.4-0.1
		c0.2-0.1,0.5-0.1,0.7-0.2l-0.2,0c0,0-0.2,0-0.2,0v0c0,0,0.2,0,0.2,0l-3,18l-0.7,4.6c0,0,0,0,0,0h0c-1.2,0-1,1-1.7,2c1,0,2,0,3,0
		l2.5-11.3l0.1,0.1c0.7,0.5,1.5,1,2.3,1.4c0.3,0.2,0.7,0.1,1-0.1c0.4-0.3,0.4-0.9,0.1-1.3c-0.6-0.7-1.2-1.4-1.9-2l-1-0.9
		c0,0,0,0,0,0l0.2-0.9c0.2,0.1,0.5,0.2,0.7,0.3c0.9,0.4,1.8,0.8,2.7,1.1c0.9,0.3,1.9,0.6,2.9,0.8c0.4,0.1,0.8-0.1,0.9-0.4
		c0.2-0.4,0.1-1-0.4-1.2l0,0c-0.8-0.4-1.7-0.9-2.5-1.3c-0.8-0.4-1.7-0.8-2.5-1.3c-0.4-0.2-0.8-0.5-1.2-0.7l0.1-0.3
		c1,0.2,2,0.4,3,0.6c1,0.2,2.1,0.4,3.1,0.5c1.1,0.1,2.1,0.1,3.2,0c0.4,0,0.7-0.3,0.8-0.7c0.1-0.5-0.2-0.9-0.7-1l0,0
		c-1-0.2-1.9-0.4-2.9-0.6c-1-0.2-1.9-0.4-2.9-0.7c-1.3-0.4-2.5-0.7-3.8-1.1l-0.1-0.2c0.8,0,1.5,0,2.3,0.1c1.1,0,2.2,0,3.3,0l0.8,0
		c0.3,0,0.6,0,0.8,0c0.6,0,1.1-0.1,1.7-0.2c1.1-0.2,2.2-0.4,3.3-0.8c0.4-0.1,0.6-0.5,0.6-0.9c0-0.5-0.4-0.9-0.9-0.8l0,0
		c-1,0.1-2.1,0.1-3.1,0.1l-1.5,0l-0.8,0c-0.3,0-0.5,0-0.8,0c-1.1-0.1-2.1-0.2-3.2-0.3c-0.7-0.1-1.3-0.1-2-0.2
		c1.1-0.1,2.1-0.3,3.1-0.4c1.1-0.2,2.3-0.4,3.4-0.7c1.1-0.2,2.3-0.5,3.4-0.9c1.1-0.4,2.2-0.9,3.2-1.5C77.6,45.5,77.8,45.1,77.6,44.7
		z M39.4,36.7c0.7,0,1.3,0.2,1.9,0.4l-1,1.7c-0.2-0.5-0.6-0.8-1.1-1L39.4,36.7z M39,40.9c0.3,0,0.7-0.1,0.9-0.2c0,0.1,0,0.1,0,0.2
		c0,1-0.4,1.8-1,1.8c-0.5,0-1-0.8-1-1.8c0-0.1,0-0.1,0-0.2C38.3,40.9,38.6,40.9,39,40.9z M27.3,51.9c0-8.1,4.8-14.7,10.8-15.2
		c0.1,0.4,0.1,0.9,0.2,1.2c-0.8,0.3-1.2,1.4-1.2,2.5c0,1.9,0.5,2.8,0.5,2.8l-1.7,2.6c-0.3,0.5-1.5,2.8-1.9,3.3
		c-0.4,0.4-2.8,3.2-3.1,4.1c0,0,0,0,0,0c0,0,0,0,0,0.1c0,0,0,0.1,0,0.1c0,0,0,0,0,0c0,0.4,0.1,1.1,0.3,1.9l-2.3,4
		C27.9,57.1,27.3,54.6,27.3,51.9z M36.7,48.9c0.2,0.5,0.5,0.7,0.5,0.8c0,0.1-0.1,0.4-0.4,0.7c-0.1,0.1-1.1,0.4-2.3,0.9l1.9-3.3
		C36.6,48.4,36.7,48.8,36.7,48.9z M29.4,60.5l2.1-3.7c0.2,0.8,0.4,1.6,0.6,2.2c-0.8,0.6-1.6,1.4-2.3,2.2
		C29.6,61,29.5,60.8,29.4,60.5z M30.5,62.4c0.6-0.8,1.2-1.4,1.9-2c0.3,1,0.7,1.7,0.7,1.7s-1.3,0.6-0.5,1.1c0.8,0.5,2.4,0.1,2.4,0.1
		s0.8,0.6,1.3,1c0.6,0.4,1.4,1,1.4,1s-0.1,1,0.1,1.8C35,66.7,32.4,65,30.5,62.4z M39,56.5c-0.2,1.3-0.4,3.1-0.2,5.3
		c0.1,1.1,0.4,2.5,0,2.4c-0.4-0.1-3.2-2-3.6-3c-0.2-0.4-0.2-1.2-0.2-2c0-0.4,0.5-1.7,0.9-2.1c0.4-0.4,1.4-0.5,1.6-1.2
		c0.1-0.3-1.1-0.1-1.8-0.3c-1.1-0.2-2.1-0.9-2.6-1.4c-0.2-0.3-0.3-0.5-0.3-0.6c0.2-0.9,3.2-1.8,3.7-2c1.1-0.4,2-0.6,2.8-0.7
		c0.2,0,0.2-0.7-0.4-0.8c-0.2,0-0.4-0.5-0.4-0.8c0-0.4,1-0.3,1.5-0.4c0.6-0.1,0.8-0.7,0.8-1.1c0-0.9-0.8,0.1-2.4,0
		c-1.2-0.1-1.4-0.7-1.2-1c0.1-0.3,0.4-1.3,0.7-1.8c0.6-0.9,0.7-1,2.1-1c1.1,0,2.7,1.4,3.4,2.4c-0.3,0.2-0.5,0.4-0.8,0.7
		c-0.3-0.2-0.6-0.4-0.7-0.4c-0.3,0-0.3,0.7-0.2,1.5c-1.1,1.7-2,4-2.4,6.7C39.1,55.5,39,56,39,56.5z M42,52.8
		c0.5,0.9,0.9,1.9,1.3,2.8c-0.1,0.2-0.1,0.4-0.2,0.6c0,0.2,0,0.3-0.1,0.5c-0.4,0.4-0.8,0.9-1.2,1.3c-0.4,0.4-0.9,0.8-1.3,1.2
		c-0.1-1.2,0-2.6,0.2-4c0.1-0.4,0.1-0.7,0.2-1c0.3,0.5,0.6,0.8,1.1,0.8L42,52.8z M39.5,67.1c0.4-0.7,0.7-1.7,0.7-1.7
		s0.2-0.3,0.6-0.7c0.5,0.6,1.1,1,1.8,1.1c0.3,0.1,0.7,0,1,0C42.3,66.5,40.9,66.9,39.5,67.1z M42.8,64.2c-0.9-0.1-1.5-1.1-1.9-2.6
		c0.2-0.1,0.4-0.3,0.5-0.5c0.4-0.8,0.9-1.6,1.4-2.4c0.1-0.2,0.2-0.3,0.4-0.5c0,0.1,0.1,0.3,0.2,0.4c0,0,0,0.1,0.1,0.1
		c0.1,0.1,0.4,0.1,0.5,0c0.1-0.1,0.2-0.2,0.3-0.4c0.1,0.2,0.1,0.4,0.2,0.6c0.3,0.9,0.5,1.8,0.6,2.7c0,0.2,0.1,0.3,0.2,0.4
		c0,0.1,0.1,0.1,0.1,0.2C44.6,63.6,43.7,64.3,42.8,64.2z M47.5,56.3c-0.2,1.4-0.6,2.7-1,3.9c-0.3-0.5-0.6-1.1-0.9-1.6
		c-0.3-0.5-0.5-1-0.7-1.6c0-0.2,0.1-0.3,0.1-0.5c0-0.2,0-0.4,0-0.6c0.7-0.8,1.3-1.6,2.1-2.3l-0.7,2.2c0.5,0.1,0.9-0.1,1.3-0.5
		C47.6,55.6,47.5,56,47.5,56.3z M47.9,61.3c0,0-0.1-0.1-0.1-0.1c0.6-1.3,1-2.9,1.3-4.5c0.4-2.3,0.3-4.5-0.1-6.3
		c-0.1,0.1-0.3,0.2-0.5,0.3c-0.4,0.1-0.8,0-1.1-0.3c0,0.2,0.1,0.4,0.1,0.6c-0.1-0.1-0.3-0.1-0.4-0.1c-1-0.2-2,0.9-2.2,2.3l1.5-0.5
		c-0.5,0.8-1,1.5-1.6,2.2c0-0.2-0.1-0.3-0.2-0.5c0,0,0-0.1-0.1-0.1c-0.1-0.1-0.3-0.1-0.4,0c-0.1,0.1-0.2,0.3-0.3,0.4
		c-0.3-0.8-0.6-1.7-0.9-2.6l1.3,0.9c0.2-1.4-0.4-2.7-1.4-2.8c-0.1,0-0.3,0-0.4,0c0.6-1.1,1.2-1.9,1.9-2.3c0,0.2,0,0.5,0,0.7
		c0,0.3,0,0.5,0.1,0.8c0.1,0.3,0.1,0.5,0.3,0.8c0,0,0,0.1,0.1,0.1c0.2,0.2,0.5,0.2,0.7,0c0.2-0.2,0.4-0.5,0.5-0.7
		c0.1-0.2,0.2-0.5,0.3-0.7c0.1-0.2,0.1-0.5,0.2-0.7c0.1,0.1,0.2,0.3,0.3,0.4c0-0.6,0.3-1.1,0.8-1.2c0,0,0.1,0,0.1,0
		c-0.6-0.8-1.2-1.3-2-1.4c-0.4-0.1-0.9,0-1.3,0.1c-0.4-0.4-0.8-0.8-1.2-1.2c-0.8-0.9-2.8-1.5-2.8-1.5s0.4-1.3,0.4-2.7c0,0,0,0,0-0.1
		l1.7-3c4.6,2,7.9,7.7,7.9,14.4C50.3,55.4,49.4,58.7,47.9,61.3z"/>
	<path class="st0" d="M60.9,16.4c0.2,0.7,0.2,1.6,0.2,2.8c0.4,0.4,0.8,0.7,1.2,1.1c0.2,0.2,0.6,0.7,0.8,1.1c0.4,0,1,0,1.6-0.1
		c1.4-0.3,2.4-1.2,1.7-2.3c-1.1-1.6-3.6-3.4-5.3-4.3C60.5,14.4,60.6,15.1,60.9,16.4z"/>
	<path class="st0" d="M62.1,22.4c0.3,1.1,1.2,2.2,2.2,2.6c1.4-0.6,2-2.2,2.6-3.3c0.1-0.2,0.2-0.4,0.2-0.5
		C65.6,22.7,63.2,22.5,62.1,22.4z"/>
	<path class="st0" d="M61.4,23.6c-0.1-0.3-0.2-0.5-0.3-0.8c-0.4,0.9-1.2,2.9-1.8,4c0.6,1.1,1,5.8,1.2,5.9c0.4,0.2,3.8-3.7,4.6-6
		c-0.6-0.4-1.3-0.7-1.9-1.2C62.6,25.2,61.7,24.4,61.4,23.6z"/>
	<path class="st0" d="M57.9,25.7C57.9,25.7,57.9,25.7,57.9,25.7c0.6-0.8,1.1-1.6,1.4-2.4c0.5-1.3,0.7-2.1,0.8-3
		c0-1.9-0.1-2.9-0.2-3.7c-0.2-0.8-0.9-2.1-0.3-2.5c0,0,0,0,0,0c-1.5-0.3-2.6,1.1-2.9,1.7c-0.2,0.7,0.5,1.6,0.5,3
		c0,1.2-0.2,2.8-1.5,4.2c0.5,0.5,0.8,1.2,0.9,1.8C57.1,24.9,57.6,25.3,57.9,25.7z"/>
	<path class="st0" d="M56,26.2c0,0-0.1,0-0.1,0c-0.6,0.2-0.3,0.6,0.1,0.8c0.6,0.4,1.2,1.3,0.4,1.6c-0.9,0.4-1.7-0.4-3.2-0.3
		c-1.3,0.1-3.2,0.9-4.1,1.5C49,30,49,30,48.9,30c-2.1,1.4-1.8,1.4-1.5,2.9c0.2,1.1,1,1.9,1.3,2.2c0,0,0.1,0.1,0.1,0.1
		c0.7,0.6,1.7,0.6,2.1,0.6c1.6,0,2.5-0.9,2.4-1.1c-0.1-0.1-0.2,0-0.6,0.1c-0.6,0.1-1.4,0.1-1.7-0.1c-1.7-0.8-3-2.3-2.8-2.9
		c0.2-0.7,1.8-1,3.2-1.3c1.4-0.3,2.2-0.6,4.1-0.1c1.1,0.3,1.4,2.2,1.7,2.3c0.1,0.1,0.8-0.7,1.2-2.5c0.3-1.2,0-2.3-0.7-3.1
		c-0.1-0.1-0.2-0.3-0.4-0.4C57,26.3,56.6,26.1,56,26.2z"/>
	<path class="st0" d="M58.5,34c-0.8,0.1-1.5,0-2.1-0.2c-0.3-0.1-0.6-0.3-0.9-0.5c-0.1-0.1-0.1-0.1-0.2-0.2l-0.1-0.1L55.2,33
		c-0.1-0.1-0.3-0.3-0.5-0.5c-0.8-0.6-1.7-0.9-2.5-0.9c-0.9-0.1-1.8,0-2.6,0.3c-0.1,0-0.1,0.1-0.1,0.2c0,0.1,0.1,0.2,0.2,0.2
		c0.8,0.1,1.6,0.2,2.3,0.4c0.7,0.2,1.4,0.5,1.9,0.9c0.1,0.1,0.2,0.2,0.4,0.4l0.1,0.1l0.2,0.1c0.1,0.1,0.2,0.2,0.3,0.2
		c0.4,0.3,0.9,0.5,1.3,0.6c1,0.2,1.9-0.1,2.6-0.6c0.1,0,0.1-0.1,0.1-0.2C58.8,34.1,58.7,34,58.5,34L58.5,34z"/>
	<path class="st0" d="M52.3,18.1c0.2,2-1,2.7-0.8,3.1c0.2,0.4,2.7,0.9,3.3,0c0.1-0.1,0.1-0.2,0.2-0.3c0.2-0.4,0.4-0.9,0.5-1.3
		c0.2-1.9-1-2.9-2.2-3.1c0,0,0,0,0,0S52,16.3,52.3,18.1z"/>
	<path class="st0" d="M47.7,21.4c0.2-0.4-1.1-1-1.1-3c0-1.8-1.1-1.6-1.1-1.6s0,0,0,0c-1.2,0.4-2.3,1.4-1.9,3.3c0,0,0,0.1,0,0.1
		c0.1,0.5,0.4,1,0.8,1.4C45.1,22.5,47.6,21.8,47.7,21.4z"/>
	<path class="st0" d="M49.6,21.3c0.5,0,1.2-1.1,1.5-2.3c0.3-1.2,0.1-2.2-0.4-2.6c-0.3-0.2-0.6-0.3-0.9-0.4c0.4-0.2,0.7-0.7,0.7-1.2
		c0-0.7-0.6-1.2-1.2-1.2c-0.7,0-1.2,0.6-1.1,1.3c0,0.5,0.4,1,0.8,1.1c-0.3,0.1-0.6,0.2-0.9,0.5c-0.5,0.5-0.6,1.5-0.2,2.6
		C48.3,20.3,49.1,21.3,49.6,21.3L49.6,21.3z"/>
	<path class="st0" d="M43.1,76.7c0.2,0.1,0.5,0.2,0.7,0.3c0.4,0.1,0.9,0.2,1.3,0.2c0.8,0.1,1.7,0,2.5-0.1c0.7-0.1,1.3-0.2,2-0.2
		c0.6,0,1.2,0.1,1.8,0.5l0.1,0.1c0.1,0,0.1,0.1,0.2,0.1c0.2,0,0.3-0.2,0.3-0.3c-0.1-1.1-1-1.9-1.9-2.3c-0.9-0.4-2-0.4-2.8-0.2
		c-0.8,0.1-1.5,0.3-2.3,0.5l-1.1,0.3c-0.3,0.1-0.7,0.2-0.9,0.2l-0.3,0.1c0,0,0,0-0.1,0c-0.1,0.1-0.2,0.2-0.1,0.3
		C42.6,76.4,42.9,76.5,43.1,76.7z"/>
	<path class="st0" d="M53.4,79.3c-0.4-0.3-0.8-0.4-1.2-0.5c-0.8-0.2-1.4-0.2-2-0.2l-1.8-0.1c-0.6,0-1.2-0.1-1.7-0.1
		c-0.6-0.1-1.2-0.1-1.8-0.2c-0.6-0.1-1.1-0.2-1.7-0.3c-0.5-0.2-1-0.3-1.3-0.8c-0.1-0.1-0.2-0.1-0.3-0.1c-0.2,0-0.3,0.2-0.2,0.4l0,0
		l0.1,0.2c0,0.1,0.1,0.2,0.1,0.3c0.1,0.2,0.2,0.3,0.3,0.5c0.2,0.3,0.5,0.5,0.8,0.8c0.6,0.4,1.2,0.7,1.8,0.9c0.6,0.2,1.2,0.4,1.8,0.6
		c0.6,0.2,1.3,0.3,1.9,0.4c1.3,0.2,2.5,0.2,3.5,0.5c0.2,0.1,0.4,0.1,0.5,0.2c0.1,0,0.2,0.1,0.3,0.1c0.1,0,0.3,0.1,0.5,0.3
		c0.2,0.2,0.4,0.5,0.6,0.8l0,0c0,0,0,0,0,0c0.2,0.2,0.4,0.1,0.6,0c0.3-0.3,0.5-0.7,0.6-1.1c0.1-0.4,0.1-0.9-0.2-1.4
		C54.3,80,53.8,79.6,53.4,79.3z"/>
	<path class="st0" d="M43.6,59.9C43.6,59.9,43.6,59.9,43.6,59.9c-0.1-0.1-0.2-0.1-0.3,0c-0.3,0.2-0.5,0.5-0.6,0.7
		c-0.1,0.2-0.3,0.5-0.3,0.7c-0.1,0.3-0.1,0.5-0.1,0.8c0.1,0.3,0.2,0.6,0.5,0.9c0.1,0.1,0.3,0.2,0.5,0.1c0.4-0.2,0.6-0.4,0.7-0.7
		c0.1-0.2,0.1-0.5,0.2-0.8c0-0.3,0-0.5-0.1-0.8C43.9,60.5,43.8,60.2,43.6,59.9z"/>
	<path class="st0" d="M49.3,48.6c-0.2-0.9-0.9-1.4-1.6-1.4c0,0-0.1,0-0.1,0c-0.5,0.1-0.8,0.6-0.8,1.2c0,0.2,0,0.5,0.1,0.8
		c0.1,0.4,0.3,0.8,0.6,1c0.3,0.3,0.7,0.4,1.1,0.3c0.2-0.1,0.3-0.2,0.5-0.3C49.3,49.9,49.4,49.2,49.3,48.6z M48.2,49.6
		c-0.3,0.1-0.6-0.2-0.7-0.6c-0.1-0.4,0-0.8,0.3-0.9c0.3-0.1,0.6,0.2,0.7,0.6C48.7,49.2,48.5,49.6,48.2,49.6z"/>
</g>
</svg>
