<?xml version="1.0" standalone="no"?>
<!DOCTYPE svg PUBLIC "-//W3C//DTD SVG 20010904//EN"
 "http://www.w3.org/TR/2001/REC-SVG-20010904/DTD/svg10.dtd">
<svg version="1.0" xmlns="http://www.w3.org/2000/svg"
 width="200.000000pt" height="200.000000pt" viewBox="0 0 200.000000 200.000000"
 preserveAspectRatio="xMidYMid meet">
<metadata>
Created by potrace 1.11, written by Peter Selinger 2001-2013
</metadata>
<g transform="translate(0.000000,200.000000) scale(0.100000,-0.100000)"
fill="#000000" stroke="none">
<path d="M440 1569 l-236 -244 4 -337 4 -336 240 -233 239 -232 117 12 c77 9
168 10 267 6 212 -10 249 -1 324 79 31 34 96 102 144 152 49 51 90 100 91 110
2 11 6 17 9 14 4 -3 34 22 67 55 l60 59 0 317 0 316 -165 162 c-91 88 -173
161 -182 161 -9 0 -25 7 -35 17 -10 9 -18 12 -18 7 0 -5 81 -90 180 -189 l180
-178 4 -161 c2 -113 1 -133 -3 -66 l-7 95 -3 -130 c-2 -121 -3 -128 -16 -100
-13 28 -14 20 -13 -95 l2 -125 -195 -198 -194 -199 -100 -9 c-55 -4 -156 -9
-225 -9 -69 0 -156 -5 -195 -10 -70 -9 -70 -9 -102 22 -18 18 -30 34 -27 37 2
3 -76 86 -175 186 l-179 180 -5 290 -6 290 215 218 214 217 168 1 c99 1 155 4
137 9 -26 7 -23 8 20 9 38 1 54 6 65 21 8 12 27 21 45 21 64 3 -109 18 -290
25 l-190 7 -235 -244z m1045 1 c10 -11 16 -20 13 -20 -3 0 -13 9 -23 20 -10
11 -16 20 -13 20 3 0 13 -9 23 -20z m263 -842 c-2 -36 -7 -53 -17 -53 -7 0
-92 -81 -189 -181 -98 -99 -152 -153 -122 -120 30 34 115 122 188 197 l132
136 1 49 c0 27 3 43 6 37 2 -7 3 -36 1 -65z m-1485 -88 l22 -25 -27 24 c-20
18 -28 33 -27 55 l2 31 4 -30 c3 -16 14 -41 26 -55z m62 20 l40 -45 -42 40
c-24 21 -43 43 -43 49 0 5 1 7 3 5 1 -2 20 -24 42 -49z m25 -95 c30 -30 52
-55 49 -55 -2 0 -29 25 -59 55 -30 30 -52 55 -49 55 2 0 29 -25 59 -55z m300
-222 c0 -8 -15 7 -140 135 l-135 137 138 -135 c75 -74 137 -136 137 -137z
m-145 77 c21 -22 37 -40 34 -40 -3 0 -23 18 -44 40 -21 22 -37 40 -34 40 3 0
23 -18 44 -40z m835 -145 c-7 -8 -17 -15 -23 -15 -6 0 -2 7 9 15 25 19 30 19
14 0z"/>
<path d="M1261 1789 c-46 -9 -58 -15 -49 -25 4 -3 15 -1 26 5 12 6 32 11 46
11 14 0 28 5 31 10 7 11 7 11 -54 -1z"/>
<path d="M884 1622 c-62 -10 -223 -69 -248 -91 -29 -27 -106 -134 -106 -148 0
-4 -13 -28 -30 -53 -16 -24 -32 -58 -36 -75 -3 -16 -17 -61 -31 -100 -19 -51
-27 -98 -31 -172 l-5 -102 44 -11 c24 -6 66 -18 93 -26 27 -8 53 -14 57 -14 4
0 -6 48 -22 107 -28 105 -28 108 -13 163 53 184 55 196 50 255 -3 33 -7 71
-10 85 -8 33 29 -82 44 -137 l11 -43 60 65 c79 84 107 100 220 126 120 28 174
51 224 97 22 20 7 3 -33 -39 l-74 -76 74 -18 c136 -33 147 -40 245 -140 82
-86 150 -134 190 -135 25 0 -49 190 -105 272 -45 64 -61 80 -129 126 -84 57
-188 85 -319 86 -55 1 -109 0 -120 -2z"/>
<path d="M945 1364 c-27 -13 -57 -24 -65 -24 -8 0 -23 -12 -33 -25 l-17 -24
40 -12 c22 -7 40 -16 40 -20 0 -4 -32 -37 -71 -73 -77 -71 -82 -72 -139 -22
l-35 30 -7 -60 c-5 -32 -15 -79 -23 -103 -8 -25 -15 -46 -15 -48 0 -10 64 35
82 57 25 31 31 22 57 -90 19 -78 19 -86 4 -102 -9 -10 -23 -18 -32 -18 -9 -1
-26 -7 -39 -14 -23 -12 -23 -13 33 -56 31 -24 67 -57 81 -74 l25 -31 -4 50
c-2 28 -7 58 -11 68 -11 24 16 22 113 -8 91 -29 93 -33 77 -121 l-7 -35 38 20
c22 10 65 26 97 34 32 9 60 18 63 21 7 6 -75 45 -94 46 -25 0 -12 19 58 84 77
71 82 72 139 22 l35 -30 7 60 c5 32 15 79 23 103 8 25 15 46 15 48 0 10 -64
-35 -82 -57 -25 -31 -31 -22 -57 90 -19 78 -19 86 -4 102 9 10 23 18 32 18 9
1 26 7 39 14 23 12 23 13 -33 56 -31 24 -67 57 -81 74 l-25 31 4 -50 c2 -27 7
-58 11 -67 11 -25 -16 -23 -112 7 -89 28 -96 37 -81 106 5 23 8 43 7 44 -2 1
-25 -8 -53 -21z m85 -299 c-12 -25 -24 -44 -27 -42 -2 3 6 25 18 51 13 25 25
44 27 41 2 -2 -6 -25 -18 -50z m50 -319 c0 -3 -4 -8 -10 -11 -5 -3 -10 -1 -10
4 0 6 5 11 10 11 6 0 10 -2 10 -4z"/>
<path d="M805 1310 c3 -5 8 -10 11 -10 2 0 4 5 4 10 0 6 -5 10 -11 10 -5 0 -7
-4 -4 -10z"/>
<path d="M1693 1140 c0 -25 2 -35 4 -22 2 12 2 32 0 45 -2 12 -4 2 -4 -23z"/>
<path d="M1427 1079 c24 -89 36 -189 22 -189 -4 0 -17 -33 -30 -72 -24 -75
-31 -178 -17 -248 8 -38 -24 58 -41 127 l-11 41 -62 -64 c-81 -85 -107 -99
-219 -125 -120 -28 -174 -51 -224 -97 -22 -20 -7 -3 33 39 l74 76 -74 18
c-136 33 -147 40 -245 141 -88 91 -133 121 -206 138 -25 6 -27 4 -27 -26 1
-112 56 -225 161 -331 126 -126 322 -164 559 -110 36 8 88 18 116 22 28 4 62
14 75 23 55 37 137 128 175 193 72 126 76 143 82 326 l4 166 -63 16 c-35 9
-74 20 -86 23 l-22 6 26 -93z m29 -247 c-11 -10 -15 4 -8 28 l7 25 3 -23 c2
-13 1 -26 -2 -30z m-858 -181 c4 -39 -10 -35 -34 10 -15 30 -15 30 8 27 18 -2
24 -10 26 -37z"/>
<path d="M1780 849 l0 -174 -158 -165 c-86 -90 -138 -150 -114 -131 23 18 97
91 164 161 l122 129 -3 173 c-1 95 -5 175 -7 177 -2 2 -4 -74 -4 -170z"/>
<path d="M1038 193 c7 -3 16 -2 19 1 4 3 -2 6 -13 5 -11 0 -14 -3 -6 -6z"/>
</g>
</svg>
