<?xml version="1.0" standalone="no"?>
<!DOCTYPE svg PUBLIC "-//W3C//DTD SVG 20010904//EN"
 "http://www.w3.org/TR/2001/REC-SVG-20010904/DTD/svg10.dtd">
<svg version="1.0" xmlns="http://www.w3.org/2000/svg"
 width="976.000000pt" height="976.000000pt" viewBox="0 0 976.000000 976.000000"
 preserveAspectRatio="xMidYMid meet">
<metadata>
Created by potrace 1.11, written by Peter Selinger 2001-2013
</metadata>
<g transform="translate(0.000000,976.000000) scale(0.100000,-0.100000)"
fill="#000000" stroke="none">
<path d="M4850 9730 c-117 -33 -177 -134 -149 -252 12 -53 63 -112 119 -136
l35 -15 -30 -7 c-116 -26 -177 -114 -179 -255 0 -84 5 -120 28 -197 14 -44 74
-176 86 -188 3 -3 18 -25 35 -48 45 -68 112 -122 149 -122 88 0 216 173 278
375 43 138 34 281 -21 351 -42 53 -107 86 -168 86 -30 0 -29 4 7 23 123 64
146 238 43 330 -51 45 -170 73 -233 55z"/>
<path d="M4435 9242 c-100 -10 -211 -63 -284 -134 -39 -38 -103 -135 -107
-163 -1 -5 -7 -28 -13 -50 -21 -81 -13 -200 20 -281 7 -16 13 -31 14 -34 5
-24 92 -156 126 -194 l26 -28 66 37 c37 20 67 32 67 28 0 -4 4 -3 8 3 10 14
144 51 236 65 42 6 76 15 76 20 0 5 -11 27 -25 49 -14 22 -25 42 -25 45 0 2
-11 28 -24 57 -68 150 -92 277 -95 504 -1 78 -5 83 -66 76z"/>
<path d="M5397 9242 c-2 -4 -4 -52 -6 -107 -4 -181 -21 -281 -72 -425 -11 -30
-38 -88 -60 -129 -22 -40 -38 -75 -37 -76 2 -2 23 -6 48 -9 25 -3 59 -9 75
-12 17 -4 37 -7 45 -9 23 -3 101 -26 119 -34 9 -5 51 -25 94 -46 l77 -38 23
28 c121 152 175 282 172 415 -3 85 -28 167 -72 233 -44 66 -74 96 -143 140
-62 39 -111 56 -185 63 -27 3 -55 7 -62 9 -7 2 -14 1 -16 -3z"/>
<path d="M4808 8335 c-2 -1 -37 -5 -78 -9 -80 -6 -132 -13 -165 -21 -90 -21
-113 -28 -153 -46 -72 -33 -76 -40 -78 -141 l-2 -89 36 -24 c30 -19 160 -75
176 -75 3 0 7 12 10 28 4 15 9 38 12 52 8 34 8 42 0 61 -9 22 16 46 62 59 67
18 70 16 79 -62 14 -132 4 -358 -23 -498 -20 -105 -18 -96 -34 -150 -8 -25
-14 -48 -16 -52 -1 -5 -3 -10 -4 -13 -1 -3 -3 -8 -4 -12 -3 -16 -50 -109 -69
-136 l-19 -28 24 -27 c66 -72 80 -89 99 -119 11 -18 25 -33 30 -33 8 0 26 32
34 60 1 3 8 21 16 40 19 42 56 163 63 205 3 17 8 41 11 55 3 14 7 45 10 70 3
25 8 56 10 70 11 58 17 210 19 430 l2 235 82 1 c47 0 86 -4 91 -10 5 -6 9 -90
9 -186 0 -160 7 -326 17 -440 3 -40 6 -64 20 -150 9 -50 23 -116 39 -173 14
-51 22 -72 59 -157 5 -14 11 -27 11 -30 1 -3 6 -13 12 -23 10 -17 15 -13 50
34 21 30 56 71 76 93 l36 40 -25 46 c-14 25 -30 51 -35 58 -6 6 -8 12 -4 12 4
0 0 10 -8 23 -7 12 -19 40 -26 62 -6 22 -14 47 -17 55 -3 8 -7 21 -9 29 -1 7
-7 34 -13 60 -11 47 -16 75 -30 191 -12 91 -10 367 2 407 9 29 15 33 36 30 31
-5 80 -24 98 -39 10 -8 10 -14 2 -24 -6 -8 -9 -28 -5 -46 3 -18 8 -44 11 -57
2 -14 8 -28 13 -33 13 -13 181 61 197 86 11 17 15 145 6 188 -4 23 -144 80
-228 94 -54 8 -88 14 -113 19 -25 6 -397 14 -402 10z"/>
<path d="M2287 8250 c-71 -22 -130 -59 -178 -112 -38 -41 -86 -126 -95 -169
-28 -134 -18 -243 31 -337 26 -51 61 -94 166 -203 38 -39 69 -76 69 -80 0 -5
4 -9 9 -9 16 0 43 -84 42 -129 -1 -100 -114 -227 -233 -264 -22 -6 -43 -18
-45 -24 -7 -18 134 -283 167 -313 3 -3 25 -32 50 -65 49 -67 210 -230 253
-258 28 -18 29 -18 23 0 -25 79 -32 258 -16 376 15 104 27 172 30 172 1 0 3
11 5 25 2 14 9 48 15 75 27 117 9 227 -61 375 -62 131 -75 154 -106 204 -18
28 -33 56 -33 62 0 7 -4 14 -8 16 -5 2 -30 41 -56 88 -27 47 -57 100 -67 117
l-18 32 33 26 c18 14 38 25 43 25 6 0 16 7 23 15 7 9 15 13 18 11 2 -3 16 1
31 8 35 17 151 12 193 -10 68 -34 115 -92 99 -121 -27 -52 -36 -309 -14 -417
22 -107 96 -253 167 -329 14 -15 26 -32 26 -36 0 -18 33 -21 58 -6 15 8 45 21
66 28 25 9 41 21 43 33 2 10 5 30 7 44 2 14 11 42 19 63 17 40 16 41 -28 51
-87 21 -164 78 -195 142 -21 45 -28 143 -16 214 12 75 20 104 53 200 62 180
50 248 -60 345 -52 46 -189 120 -237 129 -14 2 -25 5 -25 6 0 5 -50 12 -115
15 -53 2 -92 -2 -133 -15z"/>
<path d="M7373 8260 c-114 -23 -230 -81 -310 -154 -101 -92 -112 -152 -57
-315 20 -58 38 -115 40 -126 2 -11 8 -43 14 -71 11 -53 14 -131 7 -174 -16
-99 -72 -157 -187 -195 -73 -24 -71 -21 -54 -61 8 -19 17 -54 20 -77 7 -50 6
-49 65 -71 25 -9 54 -23 64 -30 17 -12 24 -7 82 68 62 78 124 192 144 259 17
60 24 131 22 252 -2 125 -9 188 -25 218 -12 24 13 66 60 97 19 14 38 25 41 26
3 0 14 4 24 8 36 17 141 13 187 -6 58 -25 120 -67 120 -83 0 -7 -42 -84 -93
-172 -51 -87 -100 -169 -108 -183 -7 -14 -18 -28 -24 -32 -5 -4 -7 -8 -3 -8 4
0 -7 -28 -24 -62 -18 -35 -33 -65 -34 -68 0 -3 -9 -23 -18 -44 -27 -61 -53
-171 -50 -218 2 -46 4 -60 34 -208 29 -144 31 -164 35 -307 2 -84 -1 -153 -10
-188 -13 -59 -8 -66 27 -37 22 17 189 184 212 212 36 42 116 159 116 169 0 6
4 11 8 11 14 0 124 220 118 235 -3 8 -12 15 -21 15 -57 0 -200 113 -235 185
-25 51 -30 136 -10 159 7 9 9 16 6 16 -12 0 22 43 117 144 50 54 107 119 125
144 85 119 95 315 24 460 -24 50 -113 152 -132 152 -5 0 -15 6 -22 13 -22 22
-140 54 -198 55 -30 0 -74 -4 -97 -8z"/>
<path d="M3765 8244 c-16 -8 -37 -23 -46 -33 -21 -22 -37 -78 -32 -109 5 -33
32 -82 49 -89 22 -8 17 -20 -12 -27 -75 -19 -117 -85 -117 -186 -1 -79 5 -113
30 -177 3 -10 7 -20 8 -23 9 -33 56 -110 82 -136 46 -46 74 -44 126 10 34 34
121 177 116 188 -1 2 4 22 10 46 18 64 16 142 -3 187 -19 44 -61 84 -88 85
-25 0 -22 9 13 46 54 56 45 168 -17 208 -36 24 -85 28 -119 10z"/>
<path d="M5999 8241 c-41 -22 -69 -74 -69 -127 0 -32 7 -49 34 -80 l34 -40
-40 -25 c-78 -48 -101 -148 -63 -276 42 -137 133 -263 191 -263 74 0 177 211
177 362 0 94 -30 152 -92 181 -25 12 -48 23 -50 24 -2 2 5 11 16 20 49 43 59
119 24 176 -36 58 -105 78 -162 48z"/>
<path d="M3344 7905 c-86 -38 -163 -120 -180 -190 -11 -48 -14 -156 -4 -174 4
-9 18 -38 30 -65 33 -74 68 -117 89 -107 40 20 158 46 250 56 30 3 56 7 58 8
1 2 -10 28 -25 58 -57 113 -81 217 -86 374 l-2 60 -40 1 c-22 1 -62 -8 -90
-21z"/>
<path d="M6399 7926 c-1 0 -3 -23 -4 -51 -9 -170 -30 -266 -84 -374 -17 -35
-30 -65 -29 -67 2 -1 28 -5 58 -9 30 -3 68 -8 84 -11 38 -6 163 -41 175 -48 5
-4 18 6 29 21 28 40 74 123 67 123 -3 0 1 12 9 28 16 32 15 128 -3 191 -9 32
-29 61 -72 103 -33 32 -66 58 -74 58 -8 0 -15 4 -15 9 0 10 -50 23 -102 26
-21 2 -39 2 -39 1z"/>
<path d="M4099 7857 c-4 -171 -30 -280 -94 -394 l-23 -42 36 -7 c74 -12 148
-36 210 -69 l62 -33 17 29 c10 16 20 29 24 29 4 0 25 37 49 83 47 94 57 166
34 244 -36 120 -144 210 -264 218 l-50 3 -1 -61z"/>
<path d="M5675 7910 c-97 -21 -200 -123 -223 -219 -21 -87 7 -207 67 -291 65
-90 67 -91 93 -72 33 26 122 60 200 78 64 15 85 32 58 49 -13 8 -46 84 -70
162 -18 58 -29 146 -34 258 -1 37 -3 40 -31 40 -16 1 -43 -2 -60 -5z"/>
<path d="M3567 7354 c-1 -1 -28 -4 -59 -8 -132 -13 -240 -55 -303 -115 -25
-24 -45 -47 -45 -51 0 -5 -5 -21 -12 -37 -17 -42 -19 -53 -22 -116 -3 -59 2
-69 39 -74 11 -2 43 -7 70 -13 28 -5 62 -12 78 -15 64 -12 86 -17 157 -36 41
-11 88 -22 104 -23 58 -7 118 84 93 141 -14 32 -59 48 -98 34 -17 -6 -37 -18
-43 -26 -11 -14 -56 -11 -56 5 0 3 15 23 33 43 29 32 105 66 142 62 84 -9 151
-46 182 -103 18 -31 22 -66 14 -114 -4 -24 -57 -68 -97 -79 -70 -21 -71 -30
-12 -80 129 -109 249 -251 288 -341 5 -12 14 -30 18 -38 24 -42 32 -61 32 -78
0 -10 4 -22 9 -27 11 -14 39 -130 48 -200 17 -142 3 -249 -52 -409 -19 -55
-37 -105 -38 -111 -13 -39 -80 -163 -117 -215 -53 -76 -233 -230 -269 -230 -6
0 -11 -4 -11 -8 0 -11 -133 -77 -206 -102 -197 -68 -449 -84 -535 -33 -30 18
-63 68 -54 83 3 6 2 10 -3 10 -25 0 10 87 45 114 35 26 93 32 131 12 29 -15
32 -21 32 -60 0 -43 1 -44 35 -48 84 -10 186 57 227 149 26 59 31 156 10 208
-35 90 -68 120 -212 196 -36 19 -67 36 -70 39 -3 3 -23 14 -45 25 -22 11 -51
27 -65 36 -14 9 -27 16 -30 16 -12 -2 -305 183 -320 203 -3 3 -33 27 -67 53
-126 96 -264 247 -349 382 -10 17 -21 32 -25 35 -3 3 -25 39 -49 80 -24 41
-50 83 -58 93 -8 9 -11 17 -7 17 4 0 2 8 -7 18 -23 27 -181 362 -171 362 3 0
1 6 -5 13 -5 6 -27 57 -48 112 -21 55 -48 110 -61 123 -34 32 -94 30 -128 -3
-31 -32 -34 -49 -21 -130 13 -83 60 -265 83 -325 4 -8 7 -17 7 -20 2 -7 36
-102 46 -125 71 -168 229 -448 368 -652 39 -57 68 -103 65 -103 -7 0 -173 134
-243 195 -55 48 -181 177 -233 236 -20 24 -49 58 -63 74 -65 75 -187 231 -224
285 -48 71 -73 90 -118 90 -46 0 -92 -46 -92 -92 0 -68 203 -427 312 -550 18
-21 51 -59 73 -85 127 -148 401 -406 548 -515 37 -28 67 -52 67 -54 0 -2 -21
6 -47 17 -156 67 -424 212 -542 293 -40 28 -81 56 -89 61 -9 6 -25 17 -36 27
-12 9 -68 53 -126 99 -58 45 -142 116 -188 157 -101 91 -139 102 -192 55 -54
-48 -46 -85 40 -199 83 -109 234 -264 340 -350 81 -66 258 -190 303 -213 15
-8 27 -18 27 -23 0 -4 7 -8 15 -8 8 0 15 -4 15 -10 0 -5 6 -10 13 -10 7 0 22
-8 33 -17 11 -10 35 -26 52 -35 18 -10 46 -26 64 -35 17 -10 37 -22 42 -26 18
-13 76 -44 154 -83 41 -20 72 -38 69 -40 -2 -3 -47 7 -98 21 -52 15 -101 28
-109 29 -8 2 -22 6 -30 9 -8 3 -42 13 -75 23 -33 9 -66 22 -72 27 -7 5 -13 7
-13 4 0 -5 -58 12 -100 30 -8 3 -22 7 -31 9 -22 5 -149 59 -244 104 -44 21
-84 40 -90 41 -5 1 -26 12 -45 23 -19 12 -60 34 -90 50 -30 15 -68 35 -85 45
-130 76 -139 79 -181 65 -58 -20 -72 -46 -65 -117 3 -40 231 -223 396 -320 81
-47 225 -116 380 -181 61 -26 119 -51 130 -56 39 -18 221 -83 328 -117 108
-34 134 -48 75 -39 -18 3 -76 8 -129 11 -53 3 -107 8 -120 10 -13 2 -53 7 -89
10 -36 4 -76 8 -90 10 -14 2 -50 6 -80 10 -114 13 -403 79 -580 133 -120 36
-159 38 -192 13 -55 -43 -45 -121 20 -164 44 -28 233 -120 294 -142 118 -44
154 -56 173 -59 11 -3 67 -16 125 -30 58 -14 120 -27 137 -31 18 -3 62 -12 98
-20 35 -9 68 -15 72 -14 4 1 10 0 13 -1 15 -5 249 -45 320 -54 141 -18 171
-25 114 -27 -30 -1 -36 -2 -139 -14 -33 -4 -78 -8 -100 -10 -22 -1 -85 -7
-140 -11 -96 -9 -486 -10 -722 -2 -110 3 -113 2 -138 -23 -33 -33 -39 -84 -13
-121 19 -27 118 -66 218 -84 8 -2 38 -8 65 -14 169 -36 277 -42 700 -44 267
-1 300 -3 303 -17 2 -13 -30 -26 -155 -63 -87 -25 -167 -48 -178 -51 -11 -2
-45 -11 -75 -20 -30 -9 -66 -18 -80 -21 -14 -2 -54 -11 -90 -19 -36 -8 -78
-16 -95 -19 -146 -27 -321 -67 -340 -80 -30 -20 -42 -75 -25 -117 22 -51 52
-57 270 -54 107 2 206 6 220 9 14 2 48 7 75 11 28 4 52 9 55 10 3 2 26 6 50
10 25 4 97 18 160 32 63 13 126 27 140 29 14 2 36 7 50 10 14 4 34 8 45 9 11
2 27 6 36 10 21 8 31 -16 13 -33 -8 -7 -14 -10 -14 -8 0 3 -22 -7 -48 -23 -27
-16 -59 -32 -70 -36 -12 -3 -22 -11 -22 -16 0 -5 -9 -9 -19 -9 -11 0 -21 -3
-23 -8 -1 -4 -70 -40 -153 -80 -82 -40 -157 -77 -165 -82 -8 -5 -55 -29 -105
-55 -110 -56 -121 -64 -135 -100 -24 -62 23 -126 92 -124 18 0 74 11 123 24
50 14 101 27 115 30 46 11 175 60 276 106 120 54 229 99 240 99 10 0 31 -68
22 -74 -2 -1 -19 -13 -38 -26 -19 -13 -37 -27 -40 -30 -3 -3 -38 -34 -78 -69
-72 -63 -153 -143 -211 -211 -51 -59 -49 -119 6 -157 54 -37 92 -21 347 145
44 28 81 50 83 48 2 -2 5 -17 8 -34 2 -17 6 -39 9 -49 3 -10 7 -36 10 -58 3
-22 8 -58 11 -80 3 -22 8 -56 10 -75 2 -19 4 -35 5 -35 5 0 19 -165 25 -280 6
-122 14 -280 21 -400 10 -195 19 -212 114 -219 50 -4 73 2 64 15 -3 5 -8 26
-11 47 -17 129 -4 240 41 337 13 29 23 55 21 57 -2 2 -6 48 -10 103 -16 254
-34 424 -65 635 -7 41 -13 84 -15 95 -2 18 -8 52 -22 120 -6 34 -16 89 -18
105 -1 8 -5 31 -9 50 -8 41 -10 51 -20 105 -4 22 -11 60 -16 85 -5 25 -11 59
-14 75 -2 17 -7 41 -10 55 -4 14 -9 41 -11 60 -3 19 -8 45 -10 58 -5 22 -7 33
-20 106 -4 21 -9 48 -11 60 -3 11 -7 32 -10 46 -12 65 -37 198 -41 225 -3 17
-6 35 -8 40 -1 6 -5 26 -8 45 -4 19 -10 49 -13 65 -3 17 -7 37 -8 45 -1 8 -6
30 -10 48 -5 21 -4 38 4 47 11 13 24 13 90 0 14 -3 34 -7 46 -9 23 -5 112 -17
159 -22 17 -1 30 -3 30 -4 0 -1 25 -3 55 -5 30 -3 80 -7 110 -9 104 -10 314
-5 408 9 17 3 49 7 70 11 20 3 64 12 97 21 33 8 68 15 77 15 10 0 20 4 23 9
11 16 25 -1 16 -19 -24 -48 -46 -112 -43 -124 1 -5 -3 -8 -10 -8 -6 0 -9 -3
-5 -6 3 -3 -3 -31 -14 -62 -11 -31 -21 -65 -23 -77 -2 -11 -9 -38 -14 -60 -6
-22 -13 -58 -17 -80 -3 -22 -7 -47 -10 -55 -5 -16 -11 -58 -22 -160 -10 -86
-10 -405 0 -500 11 -107 16 -140 42 -260 0 -3 4 -23 9 -45 7 -36 26 -101 61
-210 25 -78 70 -181 118 -275 27 -52 54 -105 61 -117 6 -13 14 -23 19 -23 4 0
7 -5 7 -11 0 -12 116 -175 159 -223 14 -16 52 -55 84 -86 l58 -57 -43 -7 c-44
-7 -181 -69 -251 -113 -37 -23 -39 -27 -32 -61 8 -42 47 -123 68 -140 11 -10
136 -22 237 -23 16 0 145 -17 195 -25 17 -2 43 -7 58 -9 123 -19 315 -97 380
-156 74 -66 106 -179 78 -278 -14 -50 -85 -127 -192 -208 -108 -82 -193 -129
-354 -198 -43 -19 -159 -46 -257 -61 -28 -4 -53 -8 -118 -20 -106 -18 -229
-44 -253 -53 -27 -11 -31 -22 -19 -53 12 -30 134 -114 192 -133 89 -28 131
-35 220 -36 51 -1 77 2 155 17 126 24 349 131 452 218 62 52 204 201 211 222
7 18 11 17 7 -2 -21 -93 -99 -251 -158 -319 -113 -131 -199 -198 -317 -245
-56 -23 -172 -56 -222 -63 -8 -2 -26 -10 -38 -18 -37 -24 -19 -54 53 -88 89
-41 156 -55 246 -48 119 9 233 56 317 129 42 37 37 41 90 -82 90 -208 96 -220
120 -220 21 0 62 49 68 83 2 6 11 30 21 52 34 75 88 190 91 194 2 2 25 -15 52
-37 43 -36 137 -87 181 -97 9 -3 33 -9 54 -14 85 -21 247 -2 305 35 12 8 22
12 22 9 0 -3 6 -1 13 5 6 6 21 17 32 24 16 12 17 18 8 37 -9 20 -29 29 -121
52 -61 15 -123 34 -139 41 -15 7 -47 21 -70 32 -24 10 -43 22 -43 27 0 4 -5 7
-11 7 -13 0 -89 59 -129 101 -80 81 -126 142 -156 204 -36 75 -86 207 -80 212
2 2 14 -14 28 -34 49 -75 187 -203 283 -264 49 -32 129 -73 134 -70 2 2 7 -1
10 -6 7 -10 131 -56 196 -72 211 -53 414 -12 555 111 69 61 45 93 -85 114 -11
1 -45 7 -75 13 -30 6 -71 13 -90 16 -205 35 -297 56 -389 90 -187 69 -470 275
-513 375 -29 66 -20 190 17 239 22 29 82 91 89 91 3 0 23 10 44 23 20 13 51
28 67 34 17 6 39 14 50 19 26 9 28 10 114 33 41 11 78 18 83 15 4 -3 8 -2 8 3
0 4 10 8 23 9 12 1 45 4 72 8 86 11 134 15 222 21 47 3 89 7 93 10 5 3 12 1
15 -5 5 -8 11 -8 19 -1 7 6 15 9 18 6 8 -8 66 107 73 145 6 31 3 38 -22 56
-50 36 -167 92 -228 109 -33 10 -61 18 -62 19 -1 1 30 36 70 77 88 92 124 137
206 257 48 69 140 245 173 332 14 36 29 74 33 85 5 11 9 22 10 25 1 3 5 12 8
20 13 30 66 236 76 295 6 33 13 71 16 85 7 36 16 117 20 176 1 29 4 56 7 60 5
11 1 263 -6 354 -4 60 -10 108 -21 170 -3 14 -7 39 -10 55 -6 34 -32 150 -40
178 -3 9 -7 25 -9 35 -2 9 -14 44 -25 77 -12 33 -23 67 -25 76 -2 8 -11 32
-20 53 -9 21 -16 40 -16 43 0 5 43 -2 90 -16 162 -48 471 -64 695 -37 22 3 69
8 105 11 36 3 76 8 90 10 14 3 41 7 60 10 19 4 53 10 74 15 57 13 77 -1 70
-48 -5 -38 -10 -63 -17 -97 -4 -19 -19 -98 -23 -120 -1 -5 -3 -12 -4 -15 -1
-3 -4 -18 -6 -35 -4 -26 -17 -96 -39 -210 -4 -16 -8 -41 -10 -55 -2 -14 -11
-61 -19 -105 -9 -44 -18 -93 -21 -110 -3 -16 -7 -39 -10 -51 -3 -12 -7 -39
-11 -60 -3 -21 -10 -59 -16 -84 -5 -25 -12 -58 -14 -75 -5 -29 -39 -214 -49
-265 -3 -14 -7 -38 -9 -55 -2 -16 -9 -57 -15 -90 -18 -104 -22 -129 -26 -170
-2 -22 -6 -58 -9 -80 -3 -22 -8 -65 -11 -95 -3 -30 -7 -76 -11 -102 -6 -56
-12 -126 -20 -269 -5 -92 -3 -111 14 -150 45 -99 56 -196 39 -335 l-8 -60 38
2 c21 1 47 2 59 3 11 1 30 10 41 20 27 25 33 82 48 401 12 264 24 409 41 514
3 16 7 48 9 70 2 23 6 52 9 66 3 14 7 41 10 60 3 19 7 44 10 55 2 11 5 23 5
28 2 15 25 6 94 -40 40 -26 83 -53 97 -61 14 -7 32 -19 40 -26 26 -21 116 -66
141 -70 34 -5 76 19 95 56 28 54 8 90 -126 225 -51 52 -144 136 -199 179 -72
57 -72 58 -65 92 4 17 12 32 19 32 10 0 79 -28 250 -104 73 -33 80 -36 110
-46 17 -6 31 -11 33 -11 1 1 16 -6 32 -14 16 -8 31 -15 32 -13 2 1 28 -6 58
-15 223 -68 268 -71 309 -26 27 29 30 47 22 101 -3 20 -58 54 -200 125 -86 43
-159 82 -162 86 -3 5 -9 8 -13 7 -10 -2 -333 164 -378 195 -9 6 -14 16 -10 22
5 8 32 6 92 -7 468 -102 574 -117 790 -118 126 0 174 3 197 15 84 40 65 166
-27 179 -15 3 -104 21 -150 31 -14 4 -34 7 -45 9 -11 1 -53 9 -92 18 -40 9
-87 18 -105 21 -18 3 -41 8 -50 11 -9 3 -25 6 -35 8 -10 2 -45 11 -78 20 -33
9 -70 19 -81 21 -12 3 -53 15 -90 26 -38 12 -76 23 -84 24 -8 2 -15 4 -15 5 0
1 -7 3 -15 5 -9 1 -41 11 -73 21 -41 13 -57 22 -55 33 3 14 42 16 313 18 171
0 355 4 410 8 55 3 107 6 115 7 41 1 283 52 352 74 84 27 108 49 113 104 2 19
-6 39 -25 62 l-28 33 -123 -4 c-319 -11 -662 -5 -844 14 -98 10 -172 18 -190
20 -11 1 -35 3 -54 4 -45 1 -36 8 19 15 25 3 65 8 90 11 42 5 210 32 255 41
24 5 63 12 108 19 17 3 49 10 70 16 21 6 51 12 67 14 16 2 37 6 47 9 10 3 29
7 43 10 60 11 170 39 230 59 36 12 67 22 70 22 8 2 59 24 131 55 37 17 72 30
77 30 6 0 12 3 14 8 2 4 34 23 72 42 98 50 128 106 89 166 -15 23 -57 49 -74
46 -4 -1 -17 -3 -30 -6 -13 -2 -64 -16 -114 -31 -49 -14 -98 -28 -107 -30 -9
-2 -43 -10 -75 -19 -98 -25 -187 -47 -208 -50 -11 -2 -33 -6 -50 -9 -16 -3
-48 -9 -70 -12 -22 -3 -53 -7 -70 -10 -50 -7 -128 -17 -165 -20 -19 -2 -35 -4
-35 -5 0 -1 -22 -3 -50 -5 -27 -2 -79 -6 -115 -9 -141 -14 -160 -15 -160 -5 0
5 7 9 15 9 8 0 17 0 20 0 9 1 250 87 343 124 255 98 505 215 601 280 29 20 55
36 57 36 7 0 132 94 183 138 65 55 111 102 112 116 0 6 2 20 4 30 7 37 -22 75
-73 93 -34 12 -42 9 -157 -57 -22 -13 -83 -45 -135 -73 -52 -27 -99 -53 -105
-57 -5 -5 -13 -9 -17 -10 -4 0 -47 -19 -95 -41 -49 -23 -110 -50 -138 -61 -51
-21 -368 -127 -395 -133 -8 -2 -42 -11 -75 -20 -33 -9 -71 -18 -85 -20 -14 -2
-25 -4 -25 -5 0 -1 -13 -3 -30 -5 -29 -4 -28 -4 6 9 42 16 203 101 241 127 14
11 29 19 32 19 4 0 19 8 34 19 15 10 63 41 107 69 44 28 90 59 102 68 12 9 25
16 30 17 4 1 15 7 23 14 8 6 70 53 138 103 205 151 470 436 485 521 11 56 -39
109 -100 109 -24 0 -93 -47 -133 -90 -27 -29 -287 -236 -380 -301 -49 -35
-136 -91 -192 -123 -127 -73 -431 -226 -437 -220 -2 2 -2 5 0 7 11 7 135 103
145 112 7 5 47 41 90 80 105 93 316 304 384 385 30 35 63 73 73 84 10 11 34
45 55 76 20 30 39 57 42 60 20 20 168 284 176 315 2 6 10 28 18 50 12 34 12
44 0 67 -27 51 -87 73 -134 48 -10 -5 -47 -49 -81 -97 -35 -49 -68 -93 -74
-99 -5 -6 -23 -29 -40 -50 -26 -33 -63 -78 -100 -121 -5 -6 -30 -35 -55 -64
-58 -69 -200 -211 -270 -269 -29 -25 -65 -55 -79 -67 -14 -13 -30 -26 -36 -30
-114 -89 -127 -96 -92 -53 40 51 38 49 94 135 29 44 55 85 60 91 14 18 33 48
40 64 4 8 18 33 32 55 55 87 181 330 181 350 0 8 5 15 12 15 6 0 9 3 5 6 -3 3
4 27 15 52 29 69 90 259 102 322 3 14 8 36 11 50 3 14 8 45 12 70 3 25 7 52 8
60 3 17 -9 43 -33 71 -11 13 -29 19 -59 19 -51 0 -84 -27 -103 -85 -43 -136
-276 -632 -302 -643 -5 -2 -8 -9 -8 -16 0 -6 -7 -21 -15 -31 -8 -11 -31 -45
-52 -75 -123 -185 -230 -302 -385 -423 -109 -84 -245 -175 -338 -225 -41 -22
-121 -65 -176 -96 -56 -31 -107 -56 -113 -56 -6 0 -11 -4 -11 -10 0 -5 -5 -10
-11 -10 -25 0 -101 -75 -126 -123 -67 -131 -6 -318 121 -371 84 -35 136 -25
136 27 1 45 22 68 68 74 123 17 193 -130 102 -215 -99 -92 -507 -36 -730 100
-39 24 -79 48 -88 53 -81 46 -272 238 -272 274 0 6 -4 11 -9 11 -10 0 -111
200 -111 221 0 8 -5 20 -12 27 -7 7 -9 12 -6 12 4 0 1 21 -7 48 -32 109 -37
257 -14 393 17 102 57 227 80 256 6 7 9 13 6 13 -8 0 64 124 75 128 4 2 8 8 8
13 0 19 140 165 223 233 52 43 51 59 -6 72 -112 24 -151 142 -74 226 87 95
254 93 315 -4 l21 -33 -21 -8 c-15 -5 -28 -2 -45 15 -13 12 -33 23 -45 25 -31
5 -76 -16 -83 -37 -12 -38 -13 -60 -4 -65 5 -4 9 -14 9 -23 0 -9 15 -27 33
-39 31 -21 50 -23 97 -8 10 3 27 7 37 9 10 2 57 13 105 25 115 27 134 31 193
38 28 3 55 10 62 15 10 8 10 86 0 138 -4 21 -30 83 -39 95 -31 38 -47 53 -73
71 -40 27 -175 71 -250 80 -72 9 -239 10 -315 1 -52 -6 -74 -9 -145 -23 -181
-35 -406 -171 -513 -311 -12 -15 -36 -46 -53 -68 -65 -84 -179 -297 -256 -479
-39 -94 -82 -219 -117 -349 -18 -65 -37 -119 -42 -120 -7 -2 -20 38 -48 153
-20 82 -74 242 -106 315 -23 54 -174 354 -193 386 -77 125 -186 247 -287 320
-51 37 -190 112 -190 103 0 -4 -6 -2 -12 4 -12 9 -101 36 -158 48 -14 3 -32 7
-40 9 -45 13 -321 29 -333 19z m1559 -1998 c105 -19 306 -106 389 -168 153
-115 216 -179 363 -373 45 -59 163 -293 182 -360 2 -5 10 -26 18 -45 8 -19 18
-48 23 -65 4 -16 15 -55 23 -85 9 -30 18 -66 21 -80 3 -14 7 -35 10 -47 3 -13
7 -33 10 -45 3 -13 7 -43 10 -68 2 -25 7 -56 10 -70 3 -14 7 -63 9 -110 3 -47
5 -90 6 -95 2 -6 1 -12 0 -15 -6 -16 -4 -100 3 -100 5 0 6 -4 2 -9 -3 -5 -8
-38 -10 -73 -6 -78 -13 -145 -18 -178 -3 -14 -8 -45 -11 -69 -4 -24 -21 -94
-37 -155 -16 -61 -31 -120 -34 -131 -9 -37 -47 -129 -98 -235 -224 -474 -628
-773 -1047 -773 -99 -1 -261 26 -325 53 -32 13 -59 23 -74 26 -8 1 -18 9 -22
16 -5 7 -9 10 -9 5 0 -4 -17 3 -37 16 -21 12 -50 29 -65 36 -15 8 -36 22 -46
31 -10 9 -23 19 -29 21 -22 7 -168 143 -214 197 -24 29 -52 62 -61 72 -10 11
-18 23 -18 29 0 5 -3 11 -8 13 -8 3 -64 88 -104 158 l-26 45 23 40 c12 22 64
112 114 200 50 87 91 162 91 166 0 4 3 9 8 11 7 3 43 66 66 115 6 13 14 23 17
23 4 0 19 -51 33 -112 15 -62 31 -129 36 -148 5 -19 16 -64 24 -100 46 -200
60 -249 81 -285 32 -56 122 -143 188 -183 178 -107 432 -130 568 -50 47 28
114 102 104 117 -3 5 -24 19 -48 30 -55 26 -140 102 -169 149 -12 20 -25 39
-28 42 -6 5 -28 51 -53 112 -9 20 -18 54 -21 74 -4 20 -8 40 -11 44 -3 4 -7
25 -9 46 -3 22 -7 50 -11 64 -6 28 -7 268 -1 315 2 17 7 56 10 89 4 32 9 62
11 66 3 4 7 25 11 46 13 92 143 414 166 414 4 0 8 4 8 10 0 24 62 108 138 188
l54 55 -13 46 c-20 75 -81 160 -115 161 -6 0 -17 6 -23 14 -10 12 -29 18 -100
32 -29 6 -70 26 -74 38 -3 7 10 29 28 49 88 99 89 260 3 353 -38 42 -40 45
-24 62 9 10 16 23 16 29 0 6 7 16 15 23 13 11 9 19 -28 57 l-44 45 -52 -27
c-45 -22 -52 -30 -47 -48 4 -12 9 -40 12 -63 6 -38 4 -41 -24 -53 -36 -15 -79
-68 -94 -114 -23 -73 2 -162 63 -228 50 -54 37 -78 -66 -119 -33 -13 -66 -31
-73 -39 -11 -15 -56 -103 -54 -108 1 -1 -17 -42 -39 -90 -22 -49 -44 -97 -49
-108 -4 -11 -21 -47 -36 -80 -16 -33 -28 -62 -29 -65 -1 -6 -53 -105 -76 -145
-10 -16 -25 -43 -35 -60 -9 -16 -46 -54 -81 -84 -36 -30 -72 -69 -79 -87 -17
-41 -17 -97 0 -144 14 -39 17 -31 -99 -240 -85 -152 -144 -262 -168 -310 -12
-25 -27 -51 -34 -58 -6 -6 -15 -21 -18 -32 -3 -11 -10 -20 -15 -20 -14 0 -94
223 -114 320 -3 14 -11 48 -16 75 -6 28 -13 68 -16 90 -2 22 -7 46 -10 54 -21
61 -21 495 0 608 3 11 7 36 10 54 3 19 8 45 11 59 3 14 8 39 11 55 3 17 16 68
30 115 14 47 27 90 28 95 6 20 18 51 27 67 5 10 9 24 9 31 0 12 107 230 133
271 30 48 102 152 111 162 6 6 27 30 46 54 84 104 253 242 349 287 20 9 38 20
41 23 4 6 95 43 110 46 3 0 30 8 60 17 30 9 68 19 84 21 16 3 30 7 33 10 6 6
291 -1 329 -8z m-418 -1286 c6 -11 30 -31 52 -45 27 -17 40 -32 40 -48 0 -12
1 -51 2 -85 l3 -64 -172 -68 c-95 -37 -173 -65 -173 -62 0 10 223 392 229 392
3 0 12 -9 19 -20z"/>
<path d="M5480 4171 c-129 -42 -251 -187 -335 -396 -15 -38 -28 -74 -30 -80
-1 -5 -5 -17 -8 -25 -62 -154 -81 -513 -37 -690 7 -25 13 -52 15 -60 2 -8 12
-36 24 -63 11 -26 21 -51 22 -55 4 -20 87 -106 124 -128 143 -83 326 31 456
284 35 69 90 215 94 252 1 8 5 22 8 30 32 83 52 370 34 500 -27 204 -106 363
-207 415 -37 19 -124 28 -160 16z"/>
<path d="M3020 6900 c-107 -21 -163 -82 -199 -215 -7 -28 -7 -152 1 -200 9
-56 54 -181 74 -204 2 -2 33 26 70 63 36 36 70 66 75 66 4 0 14 6 21 13 16 15
102 58 126 62 9 2 17 4 17 5 0 2 24 8 75 19 46 10 186 8 228 -3 12 -3 32 -8
43 -11 23 -5 132 -56 163 -77 48 -32 131 -112 162 -157 20 -28 24 -95 7 -128
-25 -49 -94 -111 -162 -144 -58 -29 -77 -33 -160 -36 -58 -1 -100 2 -108 9 -7
6 -13 8 -13 4 0 -3 -16 0 -35 8 -49 21 -46 -4 5 -35 110 -68 266 -71 394 -9
80 38 168 136 185 205 18 78 -8 174 -65 240 -14 17 -29 35 -32 40 -9 12 -84
80 -135 120 -96 76 -226 140 -322 159 -16 4 -41 9 -55 12 -14 4 -91 7 -172 8
-124 1 -150 4 -164 18 -16 16 -16 19 -1 42 9 13 30 33 47 43 32 19 49 58 33
74 -13 13 -61 17 -103 9z"/>
<path d="M6749 6889 c-23 -23 -12 -47 33 -74 16 -9 36 -28 45 -41 15 -23 15
-26 -1 -42 -14 -14 -41 -17 -169 -19 -131 -1 -173 -4 -197 -13 -3 -1 -8 -2
-12 -1 -32 4 -258 -93 -258 -111 0 -4 -5 -8 -11 -8 -29 0 -175 -132 -248 -224
-59 -74 -73 -182 -35 -262 10 -21 42 -61 69 -89 128 -125 307 -155 470 -79 55
26 71 42 56 57 -8 8 -11 8 -11 -3 0 -7 -3 -10 -7 -7 -3 4 -12 2 -19 -4 -21
-17 -165 -23 -225 -9 -113 26 -227 115 -249 194 -21 76 10 129 135 230 109 90
208 126 353 131 80 2 117 -1 170 -17 105 -31 196 -84 268 -156 57 -57 77 -67
80 -44 0 4 9 25 19 47 33 74 54 176 51 255 -6 145 -49 230 -140 275 -70 34
-141 40 -167 14z"/>
<path d="M3428 6344 c-70 -23 -147 -70 -213 -130 -94 -86 -157 -126 -218 -140
-12 -3 -64 -7 -115 -9 -51 -2 -96 -5 -99 -9 -9 -9 6 -36 24 -43 10 -3 24 -11
31 -17 32 -24 114 -44 183 -44 95 0 142 22 269 125 52 42 109 81 125 88 17 7
39 16 50 20 11 4 25 9 30 10 6 2 30 8 55 15 25 7 54 14 65 16 11 1 20 3 20 4
0 2 58 9 103 13 29 2 51 19 52 38 0 12 -161 72 -203 75 -23 2 -53 5 -67 7 -14
2 -55 -7 -92 -19z"/>
<path d="M6318 6365 c-2 -2 -18 -5 -37 -8 -66 -11 -191 -61 -197 -80 -3 -10
-4 -20 -2 -22 3 -3 53 -11 133 -21 53 -7 179 -42 228 -64 27 -12 83 -49 125
-83 156 -126 192 -142 300 -134 82 5 104 9 112 17 3 3 24 14 48 24 95 43 79
68 -45 71 -134 3 -209 34 -297 121 -86 86 -207 158 -284 169 -20 3 -47 7 -59
9 -12 2 -24 2 -25 1z"/>
<path d="M3050 2343 c-85 -29 -140 -79 -178 -163 -44 -95 -27 -231 39 -317 30
-38 120 -97 166 -108 10 -3 36 -9 58 -15 52 -15 305 -20 375 -9 49 8 91 15
155 24 11 2 40 11 64 21 l43 17 -37 18 c-138 68 -184 168 -122 267 l27 42 -30
0 c-48 0 -103 -27 -134 -67 -40 -49 -40 -112 -2 -178 l28 -46 -29 4 c-32 5
-83 27 -83 36 0 3 -11 19 -25 35 -24 28 -31 44 -40 92 -2 10 -4 20 -5 22 -1 1
-2 12 -3 25 -1 44 15 102 49 169 19 37 34 71 34 75 0 27 -130 -21 -183 -67
-102 -90 -114 -237 -28 -343 14 -17 12 -18 -23 -15 -27 2 -44 10 -62 31 -31
37 -77 136 -70 153 3 7 1 16 -3 18 -17 11 7 166 29 186 3 3 14 22 24 43 11 20
23 37 28 37 4 0 8 4 8 9 0 17 -26 19 -70 4z"/>
<path d="M6780 2350 c0 -5 14 -31 30 -58 65 -104 75 -221 26 -322 -39 -81 -60
-102 -107 -107 l-40 -5 31 44 c103 147 21 333 -171 386 -52 14 -67 2 -42 -34
30 -45 62 -134 67 -189 9 -110 -59 -216 -148 -230 l-37 -6 27 40 c73 111 13
238 -118 248 l-52 3 20 -22 c58 -65 56 -152 -5 -215 -21 -21 -59 -50 -85 -63
-25 -14 -46 -28 -46 -32 0 -5 3 -7 8 -6 4 1 30 -5 57 -14 28 -10 73 -20 100
-24 28 -4 59 -9 70 -11 11 -2 76 -6 145 -8 223 -8 385 37 464 126 20 23 36 48
36 55 0 8 5 14 11 14 5 0 7 5 4 10 -4 6 -2 17 4 24 6 7 14 44 17 82 11 123
-51 234 -158 287 -57 29 -108 41 -108 27z"/>
<path d="M3834 1700 c-38 -9 -85 -25 -104 -35 -93 -48 -158 -129 -166 -204 -5
-56 12 -66 67 -37 95 50 191 61 339 39 243 -36 362 -32 494 18 105 39 140 95
74 118 -17 6 -33 9 -36 6 -3 -3 -11 0 -19 6 -7 6 -13 9 -13 6 0 -3 -42 6 -92
20 -90 24 -108 28 -156 37 -13 3 -32 8 -42 11 -10 3 -34 7 -52 9 -19 2 -44 7
-57 11 -44 14 -168 11 -237 -5z"/>
<path d="M5795 1699 c-55 -9 -138 -27 -185 -39 -47 -11 -92 -22 -100 -24 -8
-2 -33 -9 -55 -14 -22 -6 -52 -13 -68 -16 -73 -13 -81 -25 -47 -69 45 -56 187
-98 338 -97 89 0 108 2 222 20 156 25 258 17 349 -29 45 -23 60 -27 72 -18 36
27 -8 135 -79 198 -108 95 -250 123 -447 88z"/>
<path d="M4628 1431 c-50 -43 -122 -74 -203 -87 -11 -2 -31 -5 -45 -8 -14 -3
-50 -8 -80 -10 -30 -3 -73 -8 -95 -10 -106 -12 -162 -16 -310 -21 -171 -6
-258 -12 -290 -18 -11 -3 -40 -8 -65 -13 -25 -4 -47 -8 -50 -9 -19 -6 -47 -18
-60 -26 -8 -5 -24 -13 -35 -18 -23 -10 -74 -64 -97 -101 -26 -43 -44 -155 -27
-166 5 -2 6 -10 3 -18 -7 -18 57 -110 79 -114 12 -2 38 16 71 50 55 56 136
106 183 113 15 2 39 6 53 9 14 2 48 7 75 11 28 3 86 10 130 16 169 21 209 28
288 49 37 10 67 16 67 12 0 -3 5 -1 12 6 7 7 18 12 26 12 25 0 191 70 254 107
62 36 186 153 163 153 -3 0 1 10 9 22 22 31 20 65 -4 78 -15 8 -25 5 -52 -19z"/>
<path d="M5206 1444 c-20 -19 -20 -14 8 -76 40 -88 114 -151 249 -212 113 -52
230 -90 342 -111 22 -5 47 -10 55 -11 23 -5 181 -25 300 -39 14 -2 46 -6 71
-9 91 -10 184 -60 251 -135 43 -48 58 -50 92 -15 55 60 69 178 31 258 -38 79
-141 152 -241 171 -10 2 -19 4 -19 5 0 6 -182 19 -346 24 -149 5 -187 8 -311
22 -29 3 -69 7 -88 10 -183 20 -287 53 -330 105 -3 3 -15 11 -27 17 -17 10
-25 9 -37 -4z"/>
</g>
</svg>
